<svg xmlns="http://www.w3.org/2000/svg" xmlns:xlink="http://www.w3.org/1999/xlink" viewBox="0 0 373.52 573.37"><defs><style>.cls-1{fill:#444;}.cls-2{clip-path:url(#clip-path);}.cls-3{fill:none;stroke-width:8.02px;}.cls-3,.cls-4{stroke:#1b1815;stroke-miterlimit:10;}.cls-4{fill:#fff;stroke-width:6.01px;}.cls-5{fill:#1b1815;}</style><clipPath id="clip-path"><path class="cls-1" d="M279.16,461l-16.11-16.19.08-17.79,14.95-14.73.05-12.28L256.72,378.5l.06-15.88,26-25.57.05-12c49.58-16.52,85.39-63,85.61-117.94C368.67,138,312.58,81.59,243.11,81.17a125.49,125.49,0,0,0-102.34,51.54c-12-11.65-22.26-23-26.11-29.2-8.42-13.19-19-66.34-33.13-70.83-9.61-3.06-22.85,10.69-28.66,17,15.35,8.24,25,21.94,31.14,38.22,9.34,24.84,22.33,41.4,38.92,53.61-8.85-4.09-16.13-8-19.68-10.78C93.09,123,71.43,85.45,58.7,86.1c-8.68.45-16.27,14.81-19.56,21.29,14.68,1.86,26,9.53,35,20.22,15.58,18.47,32.48,27.4,52,31.28a123.93,123.93,0,0,0-9.28,46.69c-.23,57.54,38.6,106.21,91.69,121.17h-.33L207.41,525l16.94,20.43,15.32.09,29.08-35.4-10.17-10.22,20.51-20.21Z"/></clipPath></defs><title>Asset 6</title><g id="Layer_2" data-name="Layer 2"><g id="Layer_1-2" data-name="Layer 1"><path class="cls-1" d="M279.16,461l-16.11-16.19.08-17.79,14.95-14.73.05-12.28L256.72,378.5l.06-15.88,26-25.57.05-12c49.58-16.52,85.39-63,85.61-117.94C368.67,138,312.58,81.59,243.11,81.17a125.49,125.49,0,0,0-102.34,51.54c-12-11.65-22.26-23-26.11-29.2-8.42-13.19-19-66.34-33.13-70.83-9.61-3.06-22.85,10.69-28.66,17,15.35,8.24,25,21.94,31.14,38.22,9.34,24.84,22.33,41.4,38.92,53.61-8.85-4.09-16.13-8-19.68-10.78C93.09,123,71.43,85.45,58.7,86.1c-8.68.45-16.27,14.81-19.56,21.29,14.68,1.86,26,9.53,35,20.22,15.58,18.47,32.48,27.4,52,31.28a123.93,123.93,0,0,0-9.28,46.69c-.23,57.54,38.6,106.21,91.69,121.17h-.33L207.41,525l16.94,20.43,15.32.09,29.08-35.4-10.17-10.22,20.51-20.21Z"/><g class="cls-2"><path class="cls-1" d="M39.7,3a3,3,0,1,1-3-3A3,3,0,0,1,39.7,3Z"/><path class="cls-1" d="M52.15,3.2a3,3,0,1,1-2.95-3A3,3,0,0,1,52.15,3.2Z"/><path class="cls-1" d="M64.61,3.39a3,3,0,0,1-3,2.93,3,3,0,0,1-3-3A3,3,0,0,1,61.65.37,3,3,0,0,1,64.61,3.39Z"/><path class="cls-1" d="M77.08,3.57a3,3,0,1,1-3-3A3,3,0,0,1,77.08,3.57Z"/><path class="cls-1" d="M89.53,3.76a3,3,0,0,1-6-.09,3,3,0,0,1,6,.09Z"/><path class="cls-1" d="M102,3.94a3,3,0,1,1-3-3A3,3,0,0,1,102,3.94Z"/><path class="cls-1" d="M114.42,4.13a3,3,0,1,1-3-3A3,3,0,0,1,114.42,4.13Z"/><path class="cls-1" d="M126.89,4.31a3,3,0,1,1-3-3A3,3,0,0,1,126.89,4.31Z"/><path class="cls-1" d="M139.34,4.5a3,3,0,1,1-3-3A3,3,0,0,1,139.34,4.5Z"/><path class="cls-1" d="M151.79,4.68a3,3,0,1,1-3-3A3,3,0,0,1,151.79,4.68Z"/><path class="cls-1" d="M20.86,14.06a3,3,0,1,1-3-3A3,3,0,0,1,20.86,14.06Z"/><path class="cls-1" d="M33.31,14.25a3,3,0,1,1-3-3A3,3,0,0,1,33.31,14.25Z"/><path class="cls-1" d="M45.76,14.43a3,3,0,1,1-3-3A3,3,0,0,1,45.76,14.43Z"/><path class="cls-1" d="M58.21,14.61a3,3,0,1,1-3-3A3,3,0,0,1,58.21,14.61Z"/><path class="cls-1" d="M70.67,14.8a3,3,0,1,1-3-3A3,3,0,0,1,70.67,14.8Z"/><path class="cls-1" d="M83.11,15a3,3,0,1,1-2.94-3A3,3,0,0,1,83.11,15Z"/><path class="cls-1" d="M95.58,15.17a3,3,0,1,1-3-3A3,3,0,0,1,95.58,15.17Z"/><path class="cls-1" d="M108,15.35a3,3,0,0,1-6-.09,3,3,0,0,1,6,.09Z"/><path class="cls-1" d="M120.49,15.54a3,3,0,1,1-3-3A3,3,0,0,1,120.49,15.54Z"/><path class="cls-1" d="M132.93,15.72a3,3,0,1,1-3-3A3,3,0,0,1,132.93,15.72Z"/><path class="cls-1" d="M145.4,15.91a3,3,0,1,1-3-3A3,3,0,0,1,145.4,15.91Z"/><path class="cls-1" d="M14.47,25.07a3,3,0,1,1-3-3A3,3,0,0,1,14.47,25.07Z"/><path class="cls-1" d="M26.91,25.25a3,3,0,0,1-6-.09A3,3,0,0,1,24,22.22,3,3,0,0,1,26.91,25.25Z"/><path class="cls-1" d="M39.37,25.44a3,3,0,0,1-6-.09,3,3,0,0,1,6,.09Z"/><path class="cls-1" d="M51.82,25.62a3,3,0,1,1-3-3A3,3,0,0,1,51.82,25.62Z"/><path class="cls-1" d="M64.28,25.81a3,3,0,0,1-6-.09,3,3,0,0,1,6,.09Z"/><path class="cls-1" d="M76.75,26a3,3,0,0,1-3.07,2.9A3,3,0,1,1,73.77,23,3,3,0,0,1,76.75,26Z"/><path class="cls-1" d="M89.2,26.18a3,3,0,1,1-3-3A3,3,0,0,1,89.2,26.18Z"/><path class="cls-1" d="M101.66,26.36a3,3,0,0,1-3.08,2.9,3,3,0,1,1,.09-5.93A3,3,0,0,1,101.66,26.36Z"/><path class="cls-1" d="M114.09,26.55a3,3,0,1,1-3-3A3,3,0,0,1,114.09,26.55Z"/><path class="cls-1" d="M126.55,26.73a3,3,0,1,1-3-3A3,3,0,0,1,126.55,26.73Z"/><path class="cls-1" d="M139,26.91a3,3,0,1,1-3-3A3,3,0,0,1,139,26.91Z"/><path class="cls-1" d="M151.45,27.1a3,3,0,0,1-6-.09,3,3,0,0,1,3.07-2.94A3,3,0,0,1,151.45,27.1Z"/><path class="cls-1" d="M20.53,36.47a3,3,0,1,1-3-3A3,3,0,0,1,20.53,36.47Z"/><path class="cls-1" d="M33,36.65a3,3,0,1,1-3-3A3,3,0,0,1,33,36.65Z"/><path class="cls-1" d="M45.43,36.84a3,3,0,1,1-3-3A3,3,0,0,1,45.43,36.84Z"/><path class="cls-1" d="M57.88,37a3,3,0,1,1-3-3A3,3,0,0,1,57.88,37Z"/><path class="cls-1" d="M70.34,37.2a3,3,0,0,1-6-.08,3,3,0,0,1,6,.08Z"/><path class="cls-1" d="M82.78,37.39a3,3,0,1,1-2.94-3A3,3,0,0,1,82.78,37.39Z"/><path class="cls-1" d="M95.25,37.57a3,3,0,0,1-6-.09,3,3,0,0,1,6,.09Z"/><path class="cls-1" d="M107.7,37.76a3,3,0,1,1-3-3A3,3,0,0,1,107.7,37.76Z"/><path class="cls-1" d="M120.16,37.94a3,3,0,1,1-3-3A3,3,0,0,1,120.16,37.94Z"/><path class="cls-1" d="M132.6,38.13a3,3,0,0,1-3,2.94,3,3,0,1,1,.09-6A3,3,0,0,1,132.6,38.13Z"/><path class="cls-1" d="M145.07,38.31a3,3,0,1,1-3-3A3,3,0,0,1,145.07,38.31Z"/><path class="cls-1" d="M157.51,38.5a3,3,0,1,1-3-3A3,3,0,0,1,157.51,38.5Z"/><path class="cls-1" d="M170,38.68a3,3,0,0,1-3.05,2.94,3,3,0,1,1,.08-5.95A3,3,0,0,1,170,38.68Z"/><path class="cls-1" d="M14.12,48.81a3,3,0,1,1-3-3A3,3,0,0,1,14.12,48.81Z"/><path class="cls-1" d="M26.56,49a3,3,0,0,1-6-.09A3,3,0,0,1,23.6,46,3,3,0,0,1,26.56,49Z"/><path class="cls-1" d="M39,49.18a3,3,0,1,1-3-3A3,3,0,0,1,39,49.18Z"/><path class="cls-1" d="M51.47,49.36a3,3,0,1,1-3-3A3,3,0,0,1,51.47,49.36Z"/><path class="cls-1" d="M63.93,49.54a3,3,0,1,1-3-3A3,3,0,0,1,63.93,49.54Z"/><path class="cls-1" d="M76.4,49.73a3,3,0,0,1-3.07,2.92,3,3,0,1,1,.09-5.94A3,3,0,0,1,76.4,49.73Z"/><path class="cls-1" d="M88.85,49.91a3,3,0,1,1-3-3A3,3,0,0,1,88.85,49.91Z"/><path class="cls-1" d="M101.3,50.1a3,3,0,1,1-3-3A3,3,0,0,1,101.3,50.1Z"/><path class="cls-1" d="M113.74,50.28a3,3,0,1,1-2.95-3A3,3,0,0,1,113.74,50.28Z"/><path class="cls-1" d="M126.2,50.47a3,3,0,1,1-3-3A3,3,0,0,1,126.2,50.47Z"/><path class="cls-1" d="M138.65,50.65a3,3,0,1,1-3-3A3,3,0,0,1,138.65,50.65Z"/><path class="cls-1" d="M151.1,50.84a3,3,0,0,1-6-.09,3,3,0,0,1,3.07-2.93A3,3,0,0,1,151.1,50.84Z"/><path class="cls-1" d="M163.55,51a3,3,0,1,1-3-3A3,3,0,0,1,163.55,51Z"/><path class="cls-1" d="M176,51.2a3,3,0,1,1-3-3A3,3,0,0,1,176,51.2Z"/><path class="cls-1" d="M188.45,51.39a3,3,0,1,1-2.95-3A3,3,0,0,1,188.45,51.39Z"/><path class="cls-1" d="M200.92,51.57a3,3,0,1,1-3-3A3,3,0,0,1,200.92,51.57Z"/><path class="cls-1" d="M20.18,60.21a3,3,0,1,1-3-3A3,3,0,0,1,20.18,60.21Z"/><path class="cls-1" d="M32.63,60.4a3,3,0,1,1-3-3A3,3,0,0,1,32.63,60.4Z"/><path class="cls-1" d="M45.08,60.58a3,3,0,0,1-6-.09,3,3,0,0,1,6,.09Z"/><path class="cls-1" d="M57.53,60.77a3,3,0,1,1-3-3A3,3,0,0,1,57.53,60.77Z"/><path class="cls-1" d="M70,61a3,3,0,0,1-6-.09A3,3,0,0,1,70,61Z"/><path class="cls-1" d="M82.43,61.13a3,3,0,1,1-2.94-3A3,3,0,0,1,82.43,61.13Z"/><path class="cls-1" d="M94.89,61.32a3,3,0,1,1-3-3A3,3,0,0,1,94.89,61.32Z"/><path class="cls-1" d="M107.35,61.5a3,3,0,1,1-3-3A3,3,0,0,1,107.35,61.5Z"/><path class="cls-1" d="M119.81,61.69a3,3,0,1,1-3-3A3,3,0,0,1,119.81,61.69Z"/><path class="cls-1" d="M132.25,61.87a3,3,0,0,1-3.05,2.92,3,3,0,1,1,.09-5.92A3,3,0,0,1,132.25,61.87Z"/><path class="cls-1" d="M144.72,62.06a3,3,0,1,1-3-3A3,3,0,0,1,144.72,62.06Z"/><path class="cls-1" d="M157.16,62.24a3,3,0,1,1-3-3A3,3,0,0,1,157.16,62.24Z"/><path class="cls-1" d="M169.62,62.43a3,3,0,1,1-3-3A3,3,0,0,1,169.62,62.43Z"/><path class="cls-1" d="M182.09,62.61A3,3,0,0,1,179,65.53a3,3,0,1,1,3.08-2.92Z"/><path class="cls-1" d="M194.53,62.8a3,3,0,1,1-3-3A3,3,0,0,1,194.53,62.8Z"/><path class="cls-1" d="M207,63a3,3,0,0,1-6-.09,3,3,0,0,1,6,.09Z"/><path class="cls-1" d="M219.43,63.16a3,3,0,1,1-3-3A3,3,0,0,1,219.43,63.16Z"/><path class="cls-1" d="M231.89,63.35a3,3,0,1,1-3-3A3,3,0,0,1,231.89,63.35Z"/><path class="cls-1" d="M13.79,71.24a3,3,0,1,1-3-3A3,3,0,0,1,13.79,71.24Z"/><path class="cls-1" d="M26.23,71.42a3,3,0,0,1-6-.09,3,3,0,0,1,6,.09Z"/><path class="cls-1" d="M38.69,71.6a3,3,0,1,1-3-3A3,3,0,0,1,38.69,71.6Z"/><path class="cls-1" d="M51.14,71.79a3,3,0,1,1-3-3A3,3,0,0,1,51.14,71.79Z"/><path class="cls-1" d="M63.6,72a3,3,0,0,1-6-.09,3,3,0,0,1,6,.09Z"/><path class="cls-1" d="M76.06,72.16a3,3,0,1,1-3-3A3,3,0,0,1,76.06,72.16Z"/><path class="cls-1" d="M88.51,72.34a3,3,0,1,1-3-3A3,3,0,0,1,88.51,72.34Z"/><path class="cls-1" d="M101,72.53a3,3,0,1,1-3-3A3,3,0,0,1,101,72.53Z"/><path class="cls-1" d="M113.4,72.71a3,3,0,0,1-6-.09,3,3,0,0,1,6,.09Z"/><path class="cls-1" d="M125.87,72.9a3,3,0,1,1-3-3A3,3,0,0,1,125.87,72.9Z"/><path class="cls-1" d="M138.32,73.08a3,3,0,0,1-6-.09,3,3,0,0,1,6,.09Z"/><path class="cls-1" d="M150.77,73.26a3,3,0,0,1-6-.09,3,3,0,0,1,6,.09Z"/><path class="cls-1" d="M163.22,73.45a3,3,0,0,1-6-.09,3,3,0,0,1,6,.09Z"/><path class="cls-1" d="M175.68,73.63a3,3,0,1,1-3-3A3,3,0,0,1,175.68,73.63Z"/><path class="cls-1" d="M188.12,73.82a3,3,0,0,1-6-.09,3,3,0,0,1,6,.09Z"/><path class="cls-1" d="M200.59,74a3,3,0,1,1-3-3A3,3,0,0,1,200.59,74Z"/><path class="cls-1" d="M213.05,74.19a3,3,0,1,1-3-3A3,3,0,0,1,213.05,74.19Z"/><path class="cls-1" d="M225.49,74.37a3,3,0,1,1-3-3A3,3,0,0,1,225.49,74.37Z"/><path class="cls-1" d="M237.94,74.56a3,3,0,1,1-3-3A3,3,0,0,1,237.94,74.56Z"/><path class="cls-1" d="M250.41,74.74a3,3,0,0,1-6-.09,3,3,0,0,1,6,.09Z"/><path class="cls-1" d="M19.85,82.63a3,3,0,1,1-3-3A3,3,0,0,1,19.85,82.63Z"/><path class="cls-1" d="M32.3,82.82a3,3,0,1,1-3-3A3,3,0,0,1,32.3,82.82Z"/><path class="cls-1" d="M44.75,83a3,3,0,1,1-3-3A3,3,0,0,1,44.75,83Z"/><path class="cls-1" d="M57.2,83.19a3,3,0,1,1-3-3A3,3,0,0,1,57.2,83.19Z"/><path class="cls-1" d="M69.65,83.37a3,3,0,1,1-3-3A3,3,0,0,1,69.65,83.37Z"/><path class="cls-1" d="M82.09,83.55a3,3,0,0,1-6-.08,3,3,0,0,1,3.08-2.94A3,3,0,0,1,82.09,83.55Z"/><path class="cls-1" d="M94.56,83.74a3,3,0,0,1-6-.09,3,3,0,0,1,6,.09Z"/><path class="cls-1" d="M107,83.92a3,3,0,1,1-3-3A3,3,0,0,1,107,83.92Z"/><path class="cls-1" d="M119.48,84.11a3,3,0,1,1-3-3A3,3,0,0,1,119.48,84.11Z"/><path class="cls-1" d="M131.92,84.29a3,3,0,0,1-3,2.92,3,3,0,1,1,3-2.92Z"/><path class="cls-1" d="M144.39,84.48a3,3,0,1,1-3-3A3,3,0,0,1,144.39,84.48Z"/><path class="cls-1" d="M156.83,84.66a3,3,0,1,1-3-3A3,3,0,0,1,156.83,84.66Z"/><path class="cls-1" d="M169.29,84.85a3,3,0,0,1-6-.09,3,3,0,0,1,6,.09Z"/><path class="cls-1" d="M181.75,85a3,3,0,1,1-3-3A3,3,0,0,1,181.75,85Z"/><path class="cls-1" d="M194.19,85.21a3,3,0,1,1-3-3A3,3,0,0,1,194.19,85.21Z"/><path class="cls-1" d="M206.65,85.4a3,3,0,1,1-3-3A3,3,0,0,1,206.65,85.4Z"/><path class="cls-1" d="M219.1,85.58a3,3,0,1,1-2.95-3A3,3,0,0,1,219.1,85.58Z"/><path class="cls-1" d="M231.56,85.77a3,3,0,1,1-3-3A3,3,0,0,1,231.56,85.77Z"/><path class="cls-1" d="M244,86a3,3,0,0,1-6-.09,3,3,0,0,1,6,.09Z"/><path class="cls-1" d="M256.47,86.14a3,3,0,0,1-6-.09,3,3,0,0,1,6,.09Z"/><path class="cls-1" d="M13.44,95a3,3,0,1,1-3-3A3,3,0,0,1,13.44,95Z"/><path class="cls-1" d="M25.88,95.16a3,3,0,0,1-6-.09,3,3,0,0,1,6,.09Z"/><path class="cls-1" d="M38.34,95.34a3,3,0,1,1-3-3A3,3,0,0,1,38.34,95.34Z"/><path class="cls-1" d="M50.79,95.53a3,3,0,1,1-3-3A3,3,0,0,1,50.79,95.53Z"/><path class="cls-1" d="M63.24,95.71a3,3,0,0,1-6-.09,3,3,0,0,1,6,.09Z"/><path class="cls-1" d="M75.71,95.89a3,3,0,1,1-3-3A3,3,0,0,1,75.71,95.89Z"/><path class="cls-1" d="M88.16,96.08a3,3,0,1,1-3-3A3,3,0,0,1,88.16,96.08Z"/><path class="cls-1" d="M100.62,96.26a3,3,0,1,1-3-3A3,3,0,0,1,100.62,96.26Z"/><path class="cls-1" d="M113.05,96.45a3,3,0,0,1-6-.09,3,3,0,0,1,6,.09Z"/><path class="cls-1" d="M125.52,96.63a3,3,0,1,1-3-3A3,3,0,0,1,125.52,96.63Z"/><path class="cls-1" d="M138,96.82a3,3,0,1,1-3-3A3,3,0,0,1,138,96.82Z"/><path class="cls-1" d="M150.42,97a3,3,0,1,1-3-3A3,3,0,0,1,150.42,97Z"/><path class="cls-1" d="M162.87,97.19a3,3,0,1,1-3-3A3,3,0,0,1,162.87,97.19Z"/><path class="cls-1" d="M175.33,97.37a3,3,0,1,1-3-3A3,3,0,0,1,175.33,97.37Z"/><path class="cls-1" d="M187.77,97.55a3,3,0,1,1-3-3A3,3,0,0,1,187.77,97.55Z"/><path class="cls-1" d="M200.24,97.74a3,3,0,1,1-3-3A3,3,0,0,1,200.24,97.74Z"/><path class="cls-1" d="M212.69,97.92a3,3,0,1,1-3-3A3,3,0,0,1,212.69,97.92Z"/><path class="cls-1" d="M225.13,98.11a3,3,0,0,1-6-.09,3,3,0,0,1,6,.09Z"/><path class="cls-1" d="M237.59,98.29a3,3,0,1,1-3-3A3,3,0,0,1,237.59,98.29Z"/><path class="cls-1" d="M250.06,98.48a3,3,0,1,1-3-3A3,3,0,0,1,250.06,98.48Z"/><path class="cls-1" d="M7,106.2a3,3,0,0,1-3,2.91,3,3,0,1,1,.09-5.94A3,3,0,0,1,7,106.2Z"/><path class="cls-1" d="M19.49,106.38a3,3,0,1,1-3-3A3,3,0,0,1,19.49,106.38Z"/><path class="cls-1" d="M31.94,106.57a3,3,0,1,1-3-3A3,3,0,0,1,31.94,106.57Z"/><path class="cls-1" d="M44.39,106.75a3,3,0,1,1-3-3A3,3,0,0,1,44.39,106.75Z"/><path class="cls-1" d="M56.84,106.94a3,3,0,0,1-6-.09,3,3,0,0,1,6,.09Z"/><path class="cls-1" d="M69.3,107.12a3,3,0,1,1-3-3A3,3,0,0,1,69.3,107.12Z"/><path class="cls-1" d="M81.74,107.3a3,3,0,0,1-6-.08,3,3,0,0,1,3.07-3A3,3,0,0,1,81.74,107.3Z"/><path class="cls-1" d="M94.21,107.49a3,3,0,1,1-3-3A3,3,0,0,1,94.21,107.49Z"/><path class="cls-1" d="M106.67,107.67a3,3,0,1,1-3-3A3,3,0,0,1,106.67,107.67Z"/><path class="cls-1" d="M119.13,107.86a3,3,0,1,1-3-3A3,3,0,0,1,119.13,107.86Z"/><path class="cls-1" d="M131.57,108a3,3,0,1,1-3-3A3,3,0,0,1,131.57,108Z"/><path class="cls-1" d="M144,108.23a3,3,0,1,1-3-3A3,3,0,0,1,144,108.23Z"/><path class="cls-1" d="M156.48,108.41a3,3,0,1,1-3-3A3,3,0,0,1,156.48,108.41Z"/><path class="cls-1" d="M168.93,108.6a3,3,0,0,1-6-.09,3,3,0,0,1,6,.09Z"/><path class="cls-1" d="M181.4,108.78a3,3,0,1,1-3-3A3,3,0,0,1,181.4,108.78Z"/><path class="cls-1" d="M193.84,109a3,3,0,1,1-3-3A3,3,0,0,1,193.84,109Z"/><path class="cls-1" d="M206.3,109.15a3,3,0,1,1-3-3A3,3,0,0,1,206.3,109.15Z"/><path class="cls-1" d="M218.75,109.33a3,3,0,1,1-3-3A3,3,0,0,1,218.75,109.33Z"/><path class="cls-1" d="M231.21,109.52a3,3,0,1,1-3-3A3,3,0,0,1,231.21,109.52Z"/><path class="cls-1" d="M243.66,109.7a3,3,0,1,1-3-3A3,3,0,0,1,243.66,109.7Z"/><path class="cls-1" d="M256.12,109.89a3,3,0,1,1-3-3A3,3,0,0,1,256.12,109.89Z"/><path class="cls-1" d="M13.11,117.37a3,3,0,1,1-3-3A3,3,0,0,1,13.11,117.37Z"/><path class="cls-1" d="M25.55,117.56a3,3,0,1,1-3-3A3,3,0,0,1,25.55,117.56Z"/><path class="cls-1" d="M38,117.74a3,3,0,1,1-3-3A3,3,0,0,1,38,117.74Z"/><path class="cls-1" d="M50.45,117.93a3,3,0,1,1-3-3A3,3,0,0,1,50.45,117.93Z"/><path class="cls-1" d="M62.91,118.11a3,3,0,1,1-3-3A3,3,0,0,1,62.91,118.11Z"/><path class="cls-1" d="M75.38,118.3a3,3,0,0,1-6-.09,3,3,0,0,1,6,.09Z"/><path class="cls-1" d="M87.83,118.48a3,3,0,1,1-3-3A3,3,0,0,1,87.83,118.48Z"/><path class="cls-1" d="M100.29,118.66a3,3,0,0,1-6-.08,3,3,0,0,1,6,.08Z"/><path class="cls-1" d="M112.72,118.85a3,3,0,1,1-3-3A3,3,0,0,1,112.72,118.85Z"/><path class="cls-1" d="M125.19,119a3,3,0,1,1-3-3A3,3,0,0,1,125.19,119Z"/><path class="cls-1" d="M137.64,119.22a3,3,0,1,1-3-3A3,3,0,0,1,137.64,119.22Z"/><path class="cls-1" d="M150.09,119.4a3,3,0,1,1-3-3A3,3,0,0,1,150.09,119.4Z"/><path class="cls-1" d="M162.54,119.59a3,3,0,1,1-3-3A3,3,0,0,1,162.54,119.59Z"/><path class="cls-1" d="M175,119.77a3,3,0,1,1-3-3A3,3,0,0,1,175,119.77Z"/><path class="cls-1" d="M187.44,120a3,3,0,1,1-2.95-3A3,3,0,0,1,187.44,120Z"/><path class="cls-1" d="M199.9,120.14a3,3,0,1,1-3-3A3,3,0,0,1,199.9,120.14Z"/><path class="cls-1" d="M212.36,120.32a3,3,0,1,1-3-3A3,3,0,0,1,212.36,120.32Z"/><path class="cls-1" d="M224.8,120.51a3,3,0,1,1-3-3A3,3,0,0,1,224.8,120.51Z"/><path class="cls-1" d="M237.26,120.69a3,3,0,1,1-3-3A3,3,0,0,1,237.26,120.69Z"/><path class="cls-1" d="M249.73,120.88a3,3,0,1,1-3-3A3,3,0,0,1,249.73,120.88Z"/><path class="cls-1" d="M6.7,128.59a3,3,0,0,1-6-.09,3,3,0,0,1,3.07-2.91A3,3,0,0,1,6.7,128.59Z"/><path class="cls-1" d="M19.16,128.78a3,3,0,1,1-3-3A3,3,0,0,1,19.16,128.78Z"/><path class="cls-1" d="M31.61,129a3,3,0,1,1-3-3A3,3,0,0,1,31.61,129Z"/><path class="cls-1" d="M44.06,129.14a3,3,0,1,1-3-3A3,3,0,0,1,44.06,129.14Z"/><path class="cls-1" d="M56.51,129.33a3,3,0,1,1-3-3A3,3,0,0,1,56.51,129.33Z"/><path class="cls-1" d="M69,129.51a3,3,0,1,1-3-3A3,3,0,0,1,69,129.51Z"/><path class="cls-1" d="M81.41,129.7a3,3,0,1,1-2.94-3A3,3,0,0,1,81.41,129.7Z"/><path class="cls-1" d="M93.88,129.88a3,3,0,1,1-3-3A3,3,0,0,1,93.88,129.88Z"/><path class="cls-1" d="M106.34,130.07a3,3,0,0,1-6-.09,3,3,0,0,1,6,.09Z"/><path class="cls-1" d="M118.8,130.25a3,3,0,1,1-3-3A3,3,0,0,1,118.8,130.25Z"/><path class="cls-1" d="M131.24,130.44a3,3,0,1,1-3-3A3,3,0,0,1,131.24,130.44Z"/><path class="cls-1" d="M143.7,130.62a3,3,0,1,1-3-3A3,3,0,0,1,143.7,130.62Z"/><path class="cls-1" d="M156.14,130.8a3,3,0,1,1-3-3A3,3,0,0,1,156.14,130.8Z"/><path class="cls-1" d="M168.6,131a3,3,0,1,1-3-3A3,3,0,0,1,168.6,131Z"/><path class="cls-1" d="M181.07,131.17a3,3,0,1,1-3-3A3,3,0,0,1,181.07,131.17Z"/><path class="cls-1" d="M193.51,131.36a3,3,0,1,1-3-3A3,3,0,0,1,193.51,131.36Z"/><path class="cls-1" d="M206,131.54a3,3,0,1,1-3-3A3,3,0,0,1,206,131.54Z"/><path class="cls-1" d="M218.42,131.73a3,3,0,1,1-3-3A3,3,0,0,1,218.42,131.73Z"/><path class="cls-1" d="M230.88,131.91a3,3,0,0,1-6-.09,3,3,0,0,1,6,.09Z"/><path class="cls-1" d="M243.33,132.1a3,3,0,1,1-3-3A3,3,0,0,1,243.33,132.1Z"/><path class="cls-1" d="M255.79,132.28a3,3,0,1,1-3-3A3,3,0,0,1,255.79,132.28Z"/><path class="cls-1" d="M12.75,141.12a3,3,0,1,1-3-3A3,3,0,0,1,12.75,141.12Z"/><path class="cls-1" d="M25.19,141.3a3,3,0,0,1-6-.09,3,3,0,0,1,6,.09Z"/><path class="cls-1" d="M37.65,141.48a3,3,0,1,1-3-3A3,3,0,0,1,37.65,141.48Z"/><path class="cls-1" d="M50.1,141.67a3,3,0,1,1-3-3A3,3,0,0,1,50.1,141.67Z"/><path class="cls-1" d="M62.56,141.85a3,3,0,0,1-3.05,2.91,3,3,0,1,1,3.05-2.91Z"/><path class="cls-1" d="M75,142a3,3,0,1,1-3-3A3,3,0,0,1,75,142Z"/><path class="cls-1" d="M87.48,142.22a3,3,0,1,1-3-3A3,3,0,0,1,87.48,142.22Z"/><path class="cls-1" d="M99.94,142.41a3,3,0,0,1-3.07,2.91,3,3,0,1,1,.08-5.94A3,3,0,0,1,99.94,142.41Z"/><path class="cls-1" d="M112.37,142.59a3,3,0,1,1-3-3A3,3,0,0,1,112.37,142.59Z"/><path class="cls-1" d="M124.84,142.78a3,3,0,0,1-3.07,2.91,3,3,0,1,1,3.07-2.91Z"/><path class="cls-1" d="M137.29,143a3,3,0,1,1-3-3A3,3,0,0,1,137.29,143Z"/><path class="cls-1" d="M149.74,143.14a3,3,0,1,1-3-3A3,3,0,0,1,149.74,143.14Z"/><path class="cls-1" d="M162.18,143.33a3,3,0,1,1-3-3A3,3,0,0,1,162.18,143.33Z"/><path class="cls-1" d="M174.64,143.51a3,3,0,0,1-6-.09,3,3,0,0,1,6,.09Z"/><path class="cls-1" d="M187.08,143.7a3,3,0,1,1-2.94-3A3,3,0,0,1,187.08,143.7Z"/><path class="cls-1" d="M199.55,143.88a3,3,0,1,1-3-3A3,3,0,0,1,199.55,143.88Z"/><path class="cls-1" d="M212,144.07a3,3,0,1,1-3-3A3,3,0,0,1,212,144.07Z"/><path class="cls-1" d="M224.45,144.25a3,3,0,1,1-2.95-3A3,3,0,0,1,224.45,144.25Z"/><path class="cls-1" d="M236.91,144.44a3,3,0,1,1-3-3A3,3,0,0,1,236.91,144.44Z"/><path class="cls-1" d="M249.38,144.62a3,3,0,1,1-3-3A3,3,0,0,1,249.38,144.62Z"/><path class="cls-1" d="M6.34,152.34a3,3,0,0,1-6-.09,3,3,0,0,1,3.07-2.93A3,3,0,0,1,6.34,152.34Z"/><path class="cls-1" d="M18.81,152.53a3,3,0,1,1-3-3A3,3,0,0,1,18.81,152.53Z"/><path class="cls-1" d="M31.26,152.71a3,3,0,1,1-3-3A3,3,0,0,1,31.26,152.71Z"/><path class="cls-1" d="M43.71,152.89a3,3,0,1,1-3-3A3,3,0,0,1,43.71,152.89Z"/><path class="cls-1" d="M56.16,153.08a3,3,0,1,1-3-3A3,3,0,0,1,56.16,153.08Z"/><path class="cls-1" d="M68.62,153.26a3,3,0,1,1-3-3A3,3,0,0,1,68.62,153.26Z"/><path class="cls-1" d="M81.06,153.45a3,3,0,1,1-2.94-3A3,3,0,0,1,81.06,153.45Z"/><path class="cls-1" d="M93.53,153.63a3,3,0,1,1-3-3A3,3,0,0,1,93.53,153.63Z"/><path class="cls-1" d="M106,153.82a3,3,0,0,1-6-.09,3,3,0,0,1,6,.09Z"/><path class="cls-1" d="M118.44,154a3,3,0,1,1-3-3A3,3,0,0,1,118.44,154Z"/><path class="cls-1" d="M130.88,154.19a3,3,0,1,1-3-3A3,3,0,0,1,130.88,154.19Z"/><path class="cls-1" d="M143.35,154.37a3,3,0,1,1-3-3A3,3,0,0,1,143.35,154.37Z"/><path class="cls-1" d="M155.79,154.55a3,3,0,1,1-3-3A3,3,0,0,1,155.79,154.55Z"/><path class="cls-1" d="M168.25,154.74a3,3,0,0,1-3.05,2.93,3,3,0,1,1,.08-5.95A3,3,0,0,1,168.25,154.74Z"/><path class="cls-1" d="M180.72,154.92a3,3,0,0,1-6-.09,3,3,0,0,1,6,.09Z"/><path class="cls-1" d="M193.16,155.11a3,3,0,0,1-6-.09,3,3,0,0,1,6,.09Z"/><path class="cls-1" d="M205.62,155.29a3,3,0,1,1-3-3A3,3,0,0,1,205.62,155.29Z"/><path class="cls-1" d="M218.07,155.48a3,3,0,1,1-3-3A3,3,0,0,1,218.07,155.48Z"/><path class="cls-1" d="M230.53,155.66a3,3,0,0,1-6-.09,3,3,0,0,1,6,.09Z"/><path class="cls-1" d="M243,155.85a3,3,0,0,1-6-.09,3,3,0,0,1,6,.09Z"/><path class="cls-1" d="M255.43,156a3,3,0,1,1-3-3A3,3,0,0,1,255.43,156Z"/><path class="cls-1" d="M12.42,163.52a3,3,0,1,1-3-3A3,3,0,0,1,12.42,163.52Z"/><path class="cls-1" d="M24.86,163.7a3,3,0,1,1-3-3A3,3,0,0,1,24.86,163.7Z"/><path class="cls-1" d="M37.32,163.89a3,3,0,1,1-3-3A3,3,0,0,1,37.32,163.89Z"/><path class="cls-1" d="M49.77,164.07a3,3,0,1,1-3-3A3,3,0,0,1,49.77,164.07Z"/><path class="cls-1" d="M62.23,164.26a3,3,0,0,1-3,2.93,3,3,0,1,1,.08-5.95A3,3,0,0,1,62.23,164.26Z"/><path class="cls-1" d="M74.7,164.44a3,3,0,0,1-3.07,2.93,3,3,0,1,1,3.07-2.93Z"/><path class="cls-1" d="M87.15,164.63a3,3,0,0,1-6-.09,3,3,0,0,1,6,.09Z"/><path class="cls-1" d="M99.6,164.81a3,3,0,1,1-3-3A3,3,0,0,1,99.6,164.81Z"/><path class="cls-1" d="M112,165a3,3,0,0,1-6-.09,3,3,0,0,1,6,.09Z"/><path class="cls-1" d="M124.5,165.18a3,3,0,1,1-3-3A3,3,0,0,1,124.5,165.18Z"/><path class="cls-1" d="M137,165.37a3,3,0,1,1-3-3A3,3,0,0,1,137,165.37Z"/><path class="cls-1" d="M149.4,165.55a3,3,0,1,1-3-3A3,3,0,0,1,149.4,165.55Z"/><path class="cls-1" d="M161.85,165.73a3,3,0,1,1-3-3A3,3,0,0,1,161.85,165.73Z"/><path class="cls-1" d="M174.31,165.92a3,3,0,1,1-3-3A3,3,0,0,1,174.31,165.92Z"/><path class="cls-1" d="M186.75,166.1a3,3,0,1,1-2.95-3A3,3,0,0,1,186.75,166.1Z"/><path class="cls-1" d="M199.22,166.29a3,3,0,1,1-3-3A3,3,0,0,1,199.22,166.29Z"/><path class="cls-1" d="M211.68,166.47a3,3,0,1,1-3-3A3,3,0,0,1,211.68,166.47Z"/><path class="cls-1" d="M224.12,166.66a3,3,0,1,1-3-3A3,3,0,0,1,224.12,166.66Z"/><path class="cls-1" d="M236.58,166.84a3,3,0,1,1-3-3A3,3,0,0,1,236.58,166.84Z"/><path class="cls-1" d="M249,167a3,3,0,1,1-3-3A3,3,0,0,1,249,167Z"/><path class="cls-1" d="M6,174.76a3,3,0,0,1-3,2.91,3,3,0,1,1,.08-5.94A3,3,0,0,1,6,174.76Z"/><path class="cls-1" d="M43.38,175.31a3,3,0,1,1-3-3A3,3,0,0,1,43.38,175.31Z"/><path class="cls-1" d="M55.83,175.49a3,3,0,1,1-3-3A3,3,0,0,1,55.83,175.49Z"/><path class="cls-1" d="M68.29,175.68a3,3,0,1,1-3-3A3,3,0,0,1,68.29,175.68Z"/><path class="cls-1" d="M80.73,175.86a3,3,0,0,1-6-.09,3,3,0,0,1,6,.09Z"/><path class="cls-1" d="M93.2,176.05a3,3,0,1,1-3-3A3,3,0,0,1,93.2,176.05Z"/><path class="cls-1" d="M105.65,176.23a3,3,0,0,1-6-.09,3,3,0,0,1,6,.09Z"/><path class="cls-1" d="M118.11,176.42a3,3,0,1,1-3-3A3,3,0,0,1,118.11,176.42Z"/><path class="cls-1" d="M130.55,176.6a3,3,0,0,1-3.05,2.91,3,3,0,1,1,3.05-2.91Z"/><path class="cls-1" d="M143,176.79a3,3,0,1,1-3-3A3,3,0,0,1,143,176.79Z"/><path class="cls-1" d="M155.46,177a3,3,0,0,1-6-.09,3,3,0,0,1,6,.09Z"/><path class="cls-1" d="M167.92,177.15a3,3,0,0,1-3,2.92,3,3,0,1,1,.08-5.94A3,3,0,0,1,167.92,177.15Z"/><path class="cls-1" d="M180.39,177.34a3,3,0,0,1-3.08,2.91,3,3,0,1,1,.08-5.94A3,3,0,0,1,180.39,177.34Z"/><path class="cls-1" d="M192.83,177.52a3,3,0,1,1-3-3A3,3,0,0,1,192.83,177.52Z"/><path class="cls-1" d="M205.29,177.71a3,3,0,1,1-3-3A3,3,0,0,1,205.29,177.71Z"/><path class="cls-1" d="M217.74,177.89a3,3,0,1,1-3-3A3,3,0,0,1,217.74,177.89Z"/><path class="cls-1" d="M230.19,178.08a3,3,0,1,1-3-3A3,3,0,0,1,230.19,178.08Z"/><path class="cls-1" d="M242.64,178.26a3,3,0,0,1-6-.09,3,3,0,0,1,6,.09Z"/><path class="cls-1" d="M255.1,178.45a3,3,0,1,1-3-3A3,3,0,0,1,255.1,178.45Z"/><path class="cls-1" d="M61.88,188a3,3,0,1,1-3-3A3,3,0,0,1,61.88,188Z"/><path class="cls-1" d="M74.35,188.18a3,3,0,0,1-3.07,2.92,3,3,0,1,1,.09-5.93A3,3,0,0,1,74.35,188.18Z"/><path class="cls-1" d="M86.79,188.37a3,3,0,1,1-3-3A3,3,0,0,1,86.79,188.37Z"/><path class="cls-1" d="M99.25,188.55a3,3,0,1,1-3-3A3,3,0,0,1,99.25,188.55Z"/><path class="cls-1" d="M111.69,188.74a3,3,0,1,1-3-3A3,3,0,0,1,111.69,188.74Z"/><path class="cls-1" d="M124.15,188.92a3,3,0,1,1-3-3A3,3,0,0,1,124.15,188.92Z"/><path class="cls-1" d="M136.6,189.11a3,3,0,1,1-3-3A3,3,0,0,1,136.6,189.11Z"/><path class="cls-1" d="M149.05,189.29a3,3,0,0,1-6-.09,3,3,0,0,1,3.07-2.92A3,3,0,0,1,149.05,189.29Z"/><path class="cls-1" d="M161.5,189.48a3,3,0,1,1-3-3A3,3,0,0,1,161.5,189.48Z"/><path class="cls-1" d="M174,189.66a3,3,0,1,1-3-3A3,3,0,0,1,174,189.66Z"/><path class="cls-1" d="M186.4,189.84a3,3,0,1,1-3-3A3,3,0,0,1,186.4,189.84Z"/><path class="cls-1" d="M198.87,190a3,3,0,1,1-3-3A3,3,0,0,1,198.87,190Z"/><path class="cls-1" d="M211.33,190.21a3,3,0,1,1-3-3A3,3,0,0,1,211.33,190.21Z"/><path class="cls-1" d="M223.77,190.4a3,3,0,1,1-3-3A3,3,0,0,1,223.77,190.4Z"/><path class="cls-1" d="M236.23,190.58a3,3,0,1,1-3-3A3,3,0,0,1,236.23,190.58Z"/><path class="cls-1" d="M248.69,190.77a3,3,0,1,1-3-3A3,3,0,0,1,248.69,190.77Z"/><path class="cls-1" d="M67.93,199.42a3,3,0,1,1-3-3A3,3,0,0,1,67.93,199.42Z"/><path class="cls-1" d="M80.38,199.6a3,3,0,0,1-6-.09,3,3,0,0,1,6,.09Z"/><path class="cls-1" d="M92.84,199.79a3,3,0,1,1-3-3A3,3,0,0,1,92.84,199.79Z"/><path class="cls-1" d="M105.3,200a3,3,0,1,1-3-3A3,3,0,0,1,105.3,200Z"/><path class="cls-1" d="M117.76,200.16a3,3,0,1,1-3-3A3,3,0,0,1,117.76,200.16Z"/><path class="cls-1" d="M130.2,200.34a3,3,0,0,1-3,2.91,3,3,0,1,1,3-2.91Z"/><path class="cls-1" d="M142.67,200.53a3,3,0,1,1-3-3A3,3,0,0,1,142.67,200.53Z"/><path class="cls-1" d="M155.11,200.71a3,3,0,1,1-3-3A3,3,0,0,1,155.11,200.71Z"/><path class="cls-1" d="M167.57,200.9a3,3,0,1,1-3-3A3,3,0,0,1,167.57,200.9Z"/><path class="cls-1" d="M180,201.08A3,3,0,0,1,177,204a3,3,0,1,1,.09-5.93A3,3,0,0,1,180,201.08Z"/><path class="cls-1" d="M192.48,201.26a3,3,0,1,1-3-3A3,3,0,0,1,192.48,201.26Z"/><path class="cls-1" d="M204.93,201.45a3,3,0,1,1-3-3A3,3,0,0,1,204.93,201.45Z"/><path class="cls-1" d="M217.38,201.63a3,3,0,1,1-2.95-3A3,3,0,0,1,217.38,201.63Z"/><path class="cls-1" d="M229.84,201.82a3,3,0,1,1-3-3A3,3,0,0,1,229.84,201.82Z"/><path class="cls-1" d="M242.29,202a3,3,0,0,1-6-.09,3,3,0,0,1,6,.09Z"/><path class="cls-1" d="M254.75,202.19a3,3,0,1,1-3-3A3,3,0,0,1,254.75,202.19Z"/><path class="cls-1" d="M61.55,210.41a3,3,0,1,1-3-3A3,3,0,0,1,61.55,210.41Z"/><path class="cls-1" d="M74,210.6a3,3,0,1,1-3-3A3,3,0,0,1,74,210.6Z"/><path class="cls-1" d="M86.46,210.78a3,3,0,1,1-3-3A3,3,0,0,1,86.46,210.78Z"/><path class="cls-1" d="M98.92,211a3,3,0,1,1-3-3.05A3,3,0,0,1,98.92,211Z"/><path class="cls-1" d="M111.35,211.15a3,3,0,1,1-2.94-3A3,3,0,0,1,111.35,211.15Z"/><path class="cls-1" d="M123.82,211.34a3,3,0,1,1-3-3.05A3,3,0,0,1,123.82,211.34Z"/><path class="cls-1" d="M136.27,211.52a3,3,0,1,1-3-3A3,3,0,0,1,136.27,211.52Z"/><path class="cls-1" d="M148.72,211.71a3,3,0,0,1-6-.09,3,3,0,0,1,6,.09Z"/><path class="cls-1" d="M161.17,211.89a3,3,0,1,1-3-3A3,3,0,0,1,161.17,211.89Z"/><path class="cls-1" d="M173.63,212.07a3,3,0,1,1-3-3A3,3,0,0,1,173.63,212.07Z"/><path class="cls-1" d="M186.07,212.26a3,3,0,1,1-2.95-3A3,3,0,0,1,186.07,212.26Z"/><path class="cls-1" d="M198.54,212.44a3,3,0,1,1-3-3A3,3,0,0,1,198.54,212.44Z"/><path class="cls-1" d="M211,212.63a3,3,0,1,1-3-3A3,3,0,0,1,211,212.63Z"/><path class="cls-1" d="M223.44,212.81a3,3,0,1,1-2.95-3A3,3,0,0,1,223.44,212.81Z"/><path class="cls-1" d="M235.89,213a3,3,0,1,1-3-3.05A3,3,0,0,1,235.89,213Z"/><path class="cls-1" d="M248.36,213.18a3,3,0,1,1-3-3A3,3,0,0,1,248.36,213.18Z"/><path class="cls-1" d="M67.6,221.81a3,3,0,0,1-6-.09,3,3,0,0,1,6,.09Z"/><path class="cls-1" d="M80,222a3,3,0,0,1-3,2.95A3,3,0,1,1,77.1,219,3,3,0,0,1,80,222Z"/><path class="cls-1" d="M92.51,222.18a3,3,0,1,1-3-3A3,3,0,0,1,92.51,222.18Z"/><path class="cls-1" d="M105,222.36a3,3,0,1,1-3-3A3,3,0,0,1,105,222.36Z"/><path class="cls-1" d="M117.43,222.55a3,3,0,1,1-3-3A3,3,0,0,1,117.43,222.55Z"/><path class="cls-1" d="M129.87,222.73a3,3,0,1,1-3-3A3,3,0,0,1,129.87,222.73Z"/><path class="cls-1" d="M142.34,222.91a3,3,0,1,1-3-3A3,3,0,0,1,142.34,222.91Z"/><path class="cls-1" d="M154.78,223.1a3,3,0,0,1-6-.09,3,3,0,0,1,6,.09Z"/><path class="cls-1" d="M167.24,223.28a3,3,0,1,1-3-3A3,3,0,0,1,167.24,223.28Z"/><path class="cls-1" d="M179.7,223.47a3,3,0,0,1-6-.09,3,3,0,0,1,6,.09Z"/><path class="cls-1" d="M192.14,223.65a3,3,0,1,1-3-3A3,3,0,0,1,192.14,223.65Z"/><path class="cls-1" d="M204.6,223.84a3,3,0,1,1-3-3A3,3,0,0,1,204.6,223.84Z"/><path class="cls-1" d="M217.05,224a3,3,0,1,1-3-3A3,3,0,0,1,217.05,224Z"/><path class="cls-1" d="M229.51,224.21a3,3,0,1,1-3-3A3,3,0,0,1,229.51,224.21Z"/><path class="cls-1" d="M242,224.39a3,3,0,1,1-3-3A3,3,0,0,1,242,224.39Z"/><path class="cls-1" d="M254.42,224.57a3,3,0,1,1-3-3A3,3,0,0,1,254.42,224.57Z"/><path class="cls-1" d="M73.66,234.32a3,3,0,1,1-3-3A3,3,0,0,1,73.66,234.32Z"/><path class="cls-1" d="M86.11,234.51a3,3,0,1,1-3-3A3,3,0,0,1,86.11,234.51Z"/><path class="cls-1" d="M98.57,234.69a3,3,0,1,1-3-3A3,3,0,0,1,98.57,234.69Z"/><path class="cls-1" d="M111,234.88a3,3,0,1,1-3-3A3,3,0,0,1,111,234.88Z"/><path class="cls-1" d="M123.47,235.06a3,3,0,0,1-6-.09,3,3,0,0,1,6,.09Z"/><path class="cls-1" d="M135.92,235.25a3,3,0,1,1-3-3A3,3,0,0,1,135.92,235.25Z"/><path class="cls-1" d="M148.37,235.43a3,3,0,1,1-3-3A3,3,0,0,1,148.37,235.43Z"/><path class="cls-1" d="M160.82,235.61a3,3,0,1,1-3-3A3,3,0,0,1,160.82,235.61Z"/><path class="cls-1" d="M173.28,235.8a3,3,0,0,1-6-.09,3,3,0,0,1,6,.09Z"/><path class="cls-1" d="M185.72,236a3,3,0,1,1-2.95-3A3,3,0,0,1,185.72,236Z"/><path class="cls-1" d="M198.19,236.17a3,3,0,0,1-6-.09,3,3,0,0,1,6,.09Z"/><path class="cls-1" d="M210.64,236.35a3,3,0,1,1-3-3A3,3,0,0,1,210.64,236.35Z"/><path class="cls-1" d="M223.08,236.54a3,3,0,1,1-2.94-3A3,3,0,0,1,223.08,236.54Z"/><path class="cls-1" d="M235.54,236.72a3,3,0,1,1-3-3A3,3,0,0,1,235.54,236.72Z"/><path class="cls-1" d="M248,236.91a3,3,0,1,1-3-3A3,3,0,0,1,248,236.91Z"/><path class="cls-1" d="M79.69,245.75a3,3,0,1,1-2.94-3A3,3,0,0,1,79.69,245.75Z"/><path class="cls-1" d="M92.16,245.94a3,3,0,0,1-6-.09,3,3,0,0,1,6,.09Z"/><path class="cls-1" d="M104.62,246.12a3,3,0,0,1-6-.09,3,3,0,0,1,6,.09Z"/><path class="cls-1" d="M117.08,246.31a3,3,0,0,1-6-.09,3,3,0,0,1,6,.09Z"/><path class="cls-1" d="M129.52,246.49a3,3,0,1,1-3-3A3,3,0,0,1,129.52,246.49Z"/><path class="cls-1" d="M142,246.67a3,3,0,1,1-3-3A3,3,0,0,1,142,246.67Z"/><path class="cls-1" d="M154.43,246.86a3,3,0,0,1-6-.09,3,3,0,0,1,6,.09Z"/><path class="cls-1" d="M166.88,247a3,3,0,1,1-3-3A3,3,0,0,1,166.88,247Z"/><path class="cls-1" d="M179.35,247.23a3,3,0,0,1-6-.09,3,3,0,0,1,6,.09Z"/><path class="cls-1" d="M191.79,247.41a3,3,0,1,1-3-3A3,3,0,0,1,191.79,247.41Z"/><path class="cls-1" d="M204.25,247.6a3,3,0,0,1-6-.09,3,3,0,0,1,6,.09Z"/><path class="cls-1" d="M216.7,247.78a3,3,0,1,1-3-3A3,3,0,0,1,216.7,247.78Z"/><path class="cls-1" d="M229.16,248a3,3,0,0,1-6-.09,3,3,0,0,1,6,.09Z"/><path class="cls-1" d="M241.61,248.15a3,3,0,1,1-3-3A3,3,0,0,1,241.61,248.15Z"/><path class="cls-1" d="M254.07,248.33a3,3,0,0,1-6-.09,3,3,0,0,1,6,.09Z"/><path class="cls-1" d="M85.78,256.94a3,3,0,1,1-3-3A3,3,0,0,1,85.78,256.94Z"/><path class="cls-1" d="M98.24,257.12a3,3,0,0,1-6-.08,3,3,0,0,1,6,.08Z"/><path class="cls-1" d="M110.67,257.31a3,3,0,1,1-3-3A3,3,0,0,1,110.67,257.31Z"/><path class="cls-1" d="M123.14,257.49a3,3,0,1,1-3-3A3,3,0,0,1,123.14,257.49Z"/><path class="cls-1" d="M135.59,257.68a3,3,0,1,1-3-3A3,3,0,0,1,135.59,257.68Z"/><path class="cls-1" d="M148,257.86a3,3,0,1,1-3-3A3,3,0,0,1,148,257.86Z"/><path class="cls-1" d="M160.49,258.05a3,3,0,1,1-3-3A3,3,0,0,1,160.49,258.05Z"/><path class="cls-1" d="M172.94,258.23a3,3,0,1,1-3-3A3,3,0,0,1,172.94,258.23Z"/><path class="cls-1" d="M185.39,258.42a3,3,0,1,1-2.95-3A3,3,0,0,1,185.39,258.42Z"/><path class="cls-1" d="M197.85,258.6a3,3,0,1,1-2.95-3A3,3,0,0,1,197.85,258.6Z"/><path class="cls-1" d="M210.31,258.78a3,3,0,1,1-3-3A3,3,0,0,1,210.31,258.78Z"/><path class="cls-1" d="M222.75,259a3,3,0,1,1-2.95-3A3,3,0,0,1,222.75,259Z"/><path class="cls-1" d="M235.21,259.15a3,3,0,1,1-3-3A3,3,0,0,1,235.21,259.15Z"/><path class="cls-1" d="M247.68,259.34a3,3,0,1,1-3-3A3,3,0,0,1,247.68,259.34Z"/><path class="cls-1" d="M91.83,268.35a3,3,0,1,1-3-3A3,3,0,0,1,91.83,268.35Z"/><path class="cls-1" d="M104.29,268.54a3,3,0,1,1-3-3A3,3,0,0,1,104.29,268.54Z"/><path class="cls-1" d="M116.74,268.72a3,3,0,1,1-3-3A3,3,0,0,1,116.74,268.72Z"/><path class="cls-1" d="M129.18,268.9a3,3,0,0,1-6-.09,3,3,0,0,1,6,.09Z"/><path class="cls-1" d="M141.65,269.09a3,3,0,1,1-3-3A3,3,0,0,1,141.65,269.09Z"/><path class="cls-1" d="M154.09,269.27a3,3,0,1,1-3-3A3,3,0,0,1,154.09,269.27Z"/><path class="cls-1" d="M166.55,269.46a3,3,0,0,1-3.05,2.9,3,3,0,1,1,3.05-2.9Z"/><path class="cls-1" d="M179,269.64a3,3,0,1,1-3-3A3,3,0,0,1,179,269.64Z"/><path class="cls-1" d="M191.46,269.83a3,3,0,1,1-3-3A3,3,0,0,1,191.46,269.83Z"/><path class="cls-1" d="M203.92,270a3,3,0,1,1-3-3A3,3,0,0,1,203.92,270Z"/><path class="cls-1" d="M216.37,270.2a3,3,0,1,1-3-3A3,3,0,0,1,216.37,270.2Z"/><path class="cls-1" d="M228.83,270.38a3,3,0,1,1-3-3A3,3,0,0,1,228.83,270.38Z"/><path class="cls-1" d="M241.28,270.56a3,3,0,1,1-3-3A3,3,0,0,1,241.28,270.56Z"/><path class="cls-1" d="M253.73,270.75a3,3,0,1,1-3-3A3,3,0,0,1,253.73,270.75Z"/><path class="cls-1" d="M97.89,280.86a3,3,0,0,1-3.08,2.93,3,3,0,1,1,3.08-2.93Z"/><path class="cls-1" d="M110.32,281a3,3,0,1,1-2.95-3A3,3,0,0,1,110.32,281Z"/><path class="cls-1" d="M122.79,281.23a3,3,0,0,1-6-.09,3,3,0,0,1,6,.09Z"/><path class="cls-1" d="M135.23,281.41a3,3,0,1,1-3-3A3,3,0,0,1,135.23,281.41Z"/><path class="cls-1" d="M147.69,281.59a3,3,0,1,1-3-3A3,3,0,0,1,147.69,281.59Z"/><path class="cls-1" d="M160.13,281.78a3,3,0,1,1-3-3A3,3,0,0,1,160.13,281.78Z"/><path class="cls-1" d="M172.59,282a3,3,0,1,1-3-3A3,3,0,0,1,172.59,282Z"/><path class="cls-1" d="M185,282.15a3,3,0,1,1-2.94-3A3,3,0,0,1,185,282.15Z"/><path class="cls-1" d="M197.5,282.33a3,3,0,1,1-3-3A3,3,0,0,1,197.5,282.33Z"/><path class="cls-1" d="M210,282.52a3,3,0,1,1-3-3A3,3,0,0,1,210,282.52Z"/><path class="cls-1" d="M222.4,282.7a3,3,0,1,1-3-3A3,3,0,0,1,222.4,282.7Z"/><path class="cls-1" d="M234.86,282.89a3,3,0,1,1-3-3A3,3,0,0,1,234.86,282.89Z"/><path class="cls-1" d="M247.33,283.07a3,3,0,1,1-3-3A3,3,0,0,1,247.33,283.07Z"/><path class="cls-1" d="M103.93,292.27a3,3,0,1,1-3-3A3,3,0,0,1,103.93,292.27Z"/><path class="cls-1" d="M116.39,292.45a3,3,0,1,1-3-3A3,3,0,0,1,116.39,292.45Z"/><path class="cls-1" d="M128.83,292.64a3,3,0,0,1-3.05,2.92,3,3,0,1,1,.09-5.92A3,3,0,0,1,128.83,292.64Z"/><path class="cls-1" d="M141.3,292.82a3,3,0,1,1-3-3A3,3,0,0,1,141.3,292.82Z"/><path class="cls-1" d="M153.74,293a3,3,0,1,1-3-3A3,3,0,0,1,153.74,293Z"/><path class="cls-1" d="M166.2,293.19a3,3,0,0,1-3,2.92,3,3,0,1,1,.08-5.92A3,3,0,0,1,166.2,293.19Z"/><path class="cls-1" d="M178.67,293.37a3,3,0,0,1-6-.08,3,3,0,0,1,6,.08Z"/><path class="cls-1" d="M191.11,293.56a3,3,0,0,1-6-.09,3,3,0,0,1,6,.09Z"/><path class="cls-1" d="M203.57,293.74a3,3,0,1,1-3-3A3,3,0,0,1,203.57,293.74Z"/><path class="cls-1" d="M216,293.93a3,3,0,1,1-3-3A3,3,0,0,1,216,293.93Z"/><path class="cls-1" d="M228.48,294.11a3,3,0,1,1-3-3A3,3,0,0,1,228.48,294.11Z"/><path class="cls-1" d="M240.92,294.3a3,3,0,1,1-3-3A3,3,0,0,1,240.92,294.3Z"/><path class="cls-1" d="M253.38,294.48a3,3,0,1,1-3-3A3,3,0,0,1,253.38,294.48Z"/><path class="cls-1" d="M110,303.45a3,3,0,1,1-2.95-3A3,3,0,0,1,110,303.45Z"/><path class="cls-1" d="M122.45,303.63a3,3,0,1,1-3-3A3,3,0,0,1,122.45,303.63Z"/><path class="cls-1" d="M134.9,303.82a3,3,0,1,1-3-3A3,3,0,0,1,134.9,303.82Z"/><path class="cls-1" d="M147.35,304a3,3,0,1,1-3-3A3,3,0,0,1,147.35,304Z"/><path class="cls-1" d="M159.8,304.18a3,3,0,1,1-3-3A3,3,0,0,1,159.8,304.18Z"/><path class="cls-1" d="M172.26,304.37a3,3,0,1,1-3-3A3,3,0,0,1,172.26,304.37Z"/><path class="cls-1" d="M184.7,304.55a3,3,0,1,1-2.95-3A3,3,0,0,1,184.7,304.55Z"/><path class="cls-1" d="M197.17,304.74a3,3,0,1,1-3-3A3,3,0,0,1,197.17,304.74Z"/><path class="cls-1" d="M209.63,304.92a3,3,0,1,1-3-3A3,3,0,0,1,209.63,304.92Z"/><path class="cls-1" d="M222.07,305.11a3,3,0,1,1-2.95-3A3,3,0,0,1,222.07,305.11Z"/><path class="cls-1" d="M234.53,305.29a3,3,0,1,1-3-3A3,3,0,0,1,234.53,305.29Z"/><path class="cls-1" d="M247,305.48a3,3,0,1,1-3-3A3,3,0,0,1,247,305.48Z"/><path class="cls-1" d="M116.06,314.86a3,3,0,1,1-3-3A3,3,0,0,1,116.06,314.86Z"/><path class="cls-1" d="M128.5,315a3,3,0,0,1-3,2.94,3,3,0,1,1,.09-5.94A3,3,0,0,1,128.5,315Z"/><path class="cls-1" d="M141,315.23a3,3,0,1,1-3-3A3,3,0,0,1,141,315.23Z"/><path class="cls-1" d="M153.41,315.41a3,3,0,1,1-3-3A3,3,0,0,1,153.41,315.41Z"/><path class="cls-1" d="M165.87,315.6a3,3,0,0,1-6-.09,3,3,0,0,1,3.07-2.92A3,3,0,0,1,165.87,315.6Z"/><path class="cls-1" d="M178.34,315.78a3,3,0,0,1-6-.09,3,3,0,0,1,3-2.91A3,3,0,0,1,178.34,315.78Z"/><path class="cls-1" d="M190.78,316a3,3,0,1,1-3-3A3,3,0,0,1,190.78,316Z"/><path class="cls-1" d="M203.24,316.15a3,3,0,0,1-6-.09,3,3,0,0,1,6,.09Z"/><path class="cls-1" d="M215.69,316.33a3,3,0,1,1-3-3A3,3,0,0,1,215.69,316.33Z"/><path class="cls-1" d="M228.14,316.52a3,3,0,1,1-3-3A3,3,0,0,1,228.14,316.52Z"/><path class="cls-1" d="M240.59,316.7a3,3,0,1,1-3-3A3,3,0,0,1,240.59,316.7Z"/><path class="cls-1" d="M253.05,316.89a3,3,0,1,1-3-3A3,3,0,0,1,253.05,316.89Z"/><path class="cls-1" d="M147,327.75a3,3,0,0,1-6-.09,3,3,0,0,1,3.07-2.94A3,3,0,0,1,147,327.75Z"/><path class="cls-1" d="M159.45,327.94a3,3,0,1,1-3-3A3,3,0,0,1,159.45,327.94Z"/><path class="cls-1" d="M171.91,328.12a3,3,0,1,1-3-3A3,3,0,0,1,171.91,328.12Z"/><path class="cls-1" d="M184.35,328.3a3,3,0,1,1-2.95-3A3,3,0,0,1,184.35,328.3Z"/><path class="cls-1" d="M196.82,328.49a3,3,0,1,1-3-3A3,3,0,0,1,196.82,328.49Z"/><path class="cls-1" d="M209.28,328.67a3,3,0,1,1-3-3A3,3,0,0,1,209.28,328.67Z"/><path class="cls-1" d="M221.72,328.86a3,3,0,1,1-2.95-3A3,3,0,0,1,221.72,328.86Z"/><path class="cls-1" d="M234.17,329a3,3,0,1,1-3-3A3,3,0,0,1,234.17,329Z"/><path class="cls-1" d="M246.64,329.23a3,3,0,1,1-3-3A3,3,0,0,1,246.64,329.23Z"/><path class="cls-1" d="M178,339.52a3,3,0,1,1-3-3A3,3,0,0,1,178,339.52Z"/><path class="cls-1" d="M190.42,339.71a3,3,0,1,1-3-3A3,3,0,0,1,190.42,339.71Z"/><path class="cls-1" d="M202.88,339.89a3,3,0,1,1-3-3A3,3,0,0,1,202.88,339.89Z"/><path class="cls-1" d="M215.33,340.08a3,3,0,1,1-3-3A3,3,0,0,1,215.33,340.08Z"/><path class="cls-1" d="M227.79,340.26a3,3,0,1,1-3-3A3,3,0,0,1,227.79,340.26Z"/><path class="cls-1" d="M240.24,340.44a3,3,0,1,1-3-3A3,3,0,0,1,240.24,340.44Z"/><path class="cls-1" d="M252.7,340.63a3,3,0,1,1-3-3A3,3,0,0,1,252.7,340.63Z"/><path class="cls-1" d="M184,350.71a3,3,0,1,1-3-3A3,3,0,0,1,184,350.71Z"/><path class="cls-1" d="M196.49,350.89a3,3,0,1,1-3-3A3,3,0,0,1,196.49,350.89Z"/><path class="cls-1" d="M208.94,351.08a3,3,0,1,1-3-3A3,3,0,0,1,208.94,351.08Z"/><path class="cls-1" d="M221.38,351.26a3,3,0,0,1-6-.09,3,3,0,0,1,6,.09Z"/><path class="cls-1" d="M233.84,351.45a3,3,0,0,1-6-.09,3,3,0,0,1,6,.09Z"/><path class="cls-1" d="M246.31,351.63a3,3,0,0,1-6-.09,3,3,0,0,1,6,.09Z"/><path class="cls-1" d="M190.09,362.12a3,3,0,1,1-3-3A3,3,0,0,1,190.09,362.12Z"/><path class="cls-1" d="M202.55,362.31a3,3,0,1,1-3-3A3,3,0,0,1,202.55,362.31Z"/><path class="cls-1" d="M215,362.49a3,3,0,1,1-3-3A3,3,0,0,1,215,362.49Z"/><path class="cls-1" d="M227.46,362.67a3,3,0,1,1-3-3A3,3,0,0,1,227.46,362.67Z"/><path class="cls-1" d="M239.91,362.86a3,3,0,1,1-3-3A3,3,0,0,1,239.91,362.86Z"/><path class="cls-1" d="M252.37,363a3,3,0,1,1-3-3A3,3,0,0,1,252.37,363Z"/><path class="cls-1" d="M196.13,374.64a3,3,0,1,1-2.95-3A3,3,0,0,1,196.13,374.64Z"/><path class="cls-1" d="M208.59,374.82a3,3,0,1,1-3-3A3,3,0,0,1,208.59,374.82Z"/><path class="cls-1" d="M221,375a3,3,0,1,1-2.94-3A3,3,0,0,1,221,375Z"/><path class="cls-1" d="M233.49,375.19a3,3,0,1,1-3-3A3,3,0,0,1,233.49,375.19Z"/><path class="cls-1" d="M246,375.37a3,3,0,1,1-3-3A3,3,0,0,1,246,375.37Z"/><path class="cls-1" d="M202.2,386.05a3,3,0,1,1-3-3A3,3,0,0,1,202.2,386.05Z"/><path class="cls-1" d="M214.65,386.23a3,3,0,1,1-3-3A3,3,0,0,1,214.65,386.23Z"/><path class="cls-1" d="M227.11,386.42a3,3,0,1,1-3-3A3,3,0,0,1,227.11,386.42Z"/><path class="cls-1" d="M239.56,386.6a3,3,0,1,1-3-3A3,3,0,0,1,239.56,386.6Z"/><path class="cls-1" d="M252,386.78a3,3,0,1,1-3-3A3,3,0,0,1,252,386.78Z"/><path class="cls-1" d="M195.8,397a3,3,0,1,1-3-3A3,3,0,0,1,195.8,397Z"/><path class="cls-1" d="M208.26,397.21a3,3,0,1,1-3-3A3,3,0,0,1,208.26,397.21Z"/><path class="cls-1" d="M220.7,397.39a3,3,0,1,1-2.95-3A3,3,0,0,1,220.7,397.39Z"/><path class="cls-1" d="M233.16,397.58a3,3,0,1,1-3-3A3,3,0,0,1,233.16,397.58Z"/><path class="cls-1" d="M245.63,397.76a3,3,0,1,1-3-3A3,3,0,0,1,245.63,397.76Z"/><path class="cls-1" d="M201.87,408.45a3,3,0,1,1-3-3A3,3,0,0,1,201.87,408.45Z"/><path class="cls-1" d="M214.32,408.64a3,3,0,1,1-3-3A3,3,0,0,1,214.32,408.64Z"/><path class="cls-1" d="M226.78,408.82a3,3,0,1,1-3-3A3,3,0,0,1,226.78,408.82Z"/><path class="cls-1" d="M239.23,409a3,3,0,1,1-3-3A3,3,0,0,1,239.23,409Z"/><path class="cls-1" d="M251.68,409.19a3,3,0,1,1-3-3A3,3,0,0,1,251.68,409.19Z"/><path class="cls-1" d="M262.78,74.92a3,3,0,0,1-6-.09,3,3,0,0,1,6,.09Z"/><path class="cls-1" d="M268.87,86.32a3,3,0,0,1-3.08,2.92,3,3,0,1,1,.09-5.95A3,3,0,0,1,268.87,86.32Z"/><path class="cls-1" d="M281.32,86.5a3,3,0,1,1-3-3A3,3,0,0,1,281.32,86.5Z"/><path class="cls-1" d="M293.77,86.69a3,3,0,1,1-3-3A3,3,0,0,1,293.77,86.69Z"/><path class="cls-1" d="M262.43,98.66a3,3,0,1,1-2.95-3A3,3,0,0,1,262.43,98.66Z"/><path class="cls-1" d="M274.9,98.84a3,3,0,1,1-3-3A3,3,0,0,1,274.9,98.84Z"/><path class="cls-1" d="M287.35,99a3,3,0,1,1-3-3A3,3,0,0,1,287.35,99Z"/><path class="cls-1" d="M299.81,99.21a3,3,0,1,1-3-3A3,3,0,0,1,299.81,99.21Z"/><path class="cls-1" d="M312.26,99.4a3,3,0,0,1-6-.09,3,3,0,0,1,6,.09Z"/><path class="cls-1" d="M268.51,110.07a3,3,0,1,1-3-3A3,3,0,0,1,268.51,110.07Z"/><path class="cls-1" d="M281,110.26a3,3,0,1,1-3-3A3,3,0,0,1,281,110.26Z"/><path class="cls-1" d="M293.42,110.44a3,3,0,1,1-3-3A3,3,0,0,1,293.42,110.44Z"/><path class="cls-1" d="M305.87,110.62a3,3,0,1,1-3-3A3,3,0,0,1,305.87,110.62Z"/><path class="cls-1" d="M318.32,110.81a3,3,0,0,1-6-.09,3,3,0,0,1,6,.09Z"/><path class="cls-1" d="M330.78,111a3,3,0,1,1-3-3A3,3,0,0,1,330.78,111Z"/><path class="cls-1" d="M262.1,121.06a3,3,0,1,1-3-3A3,3,0,0,1,262.1,121.06Z"/><path class="cls-1" d="M274.57,121.25a3,3,0,1,1-3-3A3,3,0,0,1,274.57,121.25Z"/><path class="cls-1" d="M287,121.43a3,3,0,1,1-3-3A3,3,0,0,1,287,121.43Z"/><path class="cls-1" d="M299.47,121.62a3,3,0,1,1-3-3A3,3,0,0,1,299.47,121.62Z"/><path class="cls-1" d="M311.93,121.8a3,3,0,1,1-3-3A3,3,0,0,1,311.93,121.8Z"/><path class="cls-1" d="M324.38,122a3,3,0,1,1-3-3A3,3,0,0,1,324.38,122Z"/><path class="cls-1" d="M336.83,122.17a3,3,0,0,1-3,2.92,3,3,0,1,1,.08-5.94A3,3,0,0,1,336.83,122.17Z"/><path class="cls-1" d="M349.28,122.35a3,3,0,1,1-3-3A3,3,0,0,1,349.28,122.35Z"/><path class="cls-1" d="M268.18,132.46a3,3,0,1,1-3-3A3,3,0,0,1,268.18,132.46Z"/><path class="cls-1" d="M280.64,132.65a3,3,0,1,1-3-3A3,3,0,0,1,280.64,132.65Z"/><path class="cls-1" d="M293.09,132.83a3,3,0,1,1-3-3A3,3,0,0,1,293.09,132.83Z"/><path class="cls-1" d="M305.54,133a3,3,0,0,1-6-.09,3,3,0,0,1,6,.09Z"/><path class="cls-1" d="M318,133.2a3,3,0,1,1-3-3A3,3,0,0,1,318,133.2Z"/><path class="cls-1" d="M330.45,133.39a3,3,0,1,1-3-3A3,3,0,0,1,330.45,133.39Z"/><path class="cls-1" d="M342.89,133.57a3,3,0,1,1-3-3A3,3,0,0,1,342.89,133.57Z"/><path class="cls-1" d="M355.36,133.75a3,3,0,1,1-3-3A3,3,0,0,1,355.36,133.75Z"/><path class="cls-1" d="M261.75,144.8a3,3,0,1,1-2.95-3A3,3,0,0,1,261.75,144.8Z"/><path class="cls-1" d="M274.21,145a3,3,0,1,1-3-3A3,3,0,0,1,274.21,145Z"/><path class="cls-1" d="M286.66,145.17a3,3,0,1,1-3-3A3,3,0,0,1,286.66,145.17Z"/><path class="cls-1" d="M299.12,145.36a3,3,0,1,1-3-3A3,3,0,0,1,299.12,145.36Z"/><path class="cls-1" d="M311.58,145.54a3,3,0,0,1-6-.09,3,3,0,0,1,6,.09Z"/><path class="cls-1" d="M324,145.73a3,3,0,1,1-3-3A3,3,0,0,1,324,145.73Z"/><path class="cls-1" d="M336.48,145.91a3,3,0,0,1-6-.09,3,3,0,0,1,6,.09Z"/><path class="cls-1" d="M348.93,146.09a3,3,0,1,1-3-3A3,3,0,0,1,348.93,146.09Z"/><path class="cls-1" d="M361.4,146.28a3,3,0,1,1-3-3A3,3,0,0,1,361.4,146.28Z"/><path class="cls-1" d="M267.83,156.21a3,3,0,1,1-3-3A3,3,0,0,1,267.83,156.21Z"/><path class="cls-1" d="M280.29,156.4a3,3,0,0,1-6-.09,3,3,0,0,1,6,.09Z"/><path class="cls-1" d="M292.74,156.58a3,3,0,0,1-6-.09,3,3,0,0,1,6,.09Z"/><path class="cls-1" d="M305.19,156.77a3,3,0,0,1-6-.09,3,3,0,0,1,6,.09Z"/><path class="cls-1" d="M317.64,157a3,3,0,1,1-3-3A3,3,0,0,1,317.64,157Z"/><path class="cls-1" d="M330.1,157.14a3,3,0,0,1-6-.09,3,3,0,0,1,6,.09Z"/><path class="cls-1" d="M342.54,157.32a3,3,0,1,1-3-3A3,3,0,0,1,342.54,157.32Z"/><path class="cls-1" d="M355,157.51a3,3,0,1,1-3-3A3,3,0,0,1,355,157.51Z"/><path class="cls-1" d="M367.45,157.69a3,3,0,1,1-2.95-3A3,3,0,0,1,367.45,157.69Z"/><path class="cls-1" d="M261.41,167.21a3,3,0,1,1-2.94-3A3,3,0,0,1,261.41,167.21Z"/><path class="cls-1" d="M273.88,167.39a3,3,0,1,1-3-3A3,3,0,0,1,273.88,167.39Z"/><path class="cls-1" d="M286.33,167.58a3,3,0,1,1-3-3A3,3,0,0,1,286.33,167.58Z"/><path class="cls-1" d="M298.79,167.76a3,3,0,1,1-3-3A3,3,0,0,1,298.79,167.76Z"/><path class="cls-1" d="M311.25,168a3,3,0,1,1-3-3A3,3,0,0,1,311.25,168Z"/><path class="cls-1" d="M323.7,168.13a3,3,0,1,1-3-3A3,3,0,0,1,323.7,168.13Z"/><path class="cls-1" d="M336.15,168.32a3,3,0,1,1-3-3A3,3,0,0,1,336.15,168.32Z"/><path class="cls-1" d="M348.6,168.5a3,3,0,1,1-3-3A3,3,0,0,1,348.6,168.5Z"/><path class="cls-1" d="M361.06,168.68a3,3,0,1,1-3-3A3,3,0,0,1,361.06,168.68Z"/><path class="cls-1" d="M373.52,168.87a3,3,0,1,1-3-3A3,3,0,0,1,373.52,168.87Z"/><path class="cls-1" d="M267.5,178.63a3,3,0,0,1-3.07,2.91,3,3,0,1,1,.08-5.94A3,3,0,0,1,267.5,178.63Z"/><path class="cls-1" d="M280,178.81a3,3,0,1,1-3-3A3,3,0,0,1,280,178.81Z"/><path class="cls-1" d="M292.41,179a3,3,0,0,1-3.07,2.91,3,3,0,1,1,.09-5.94A3,3,0,0,1,292.41,179Z"/><path class="cls-1" d="M304.86,179.18a3,3,0,0,1-3.07,2.91,3,3,0,1,1,.09-5.94A3,3,0,0,1,304.86,179.18Z"/><path class="cls-1" d="M317.31,179.37a3,3,0,1,1-3-3A3,3,0,0,1,317.31,179.37Z"/><path class="cls-1" d="M329.76,179.55a3,3,0,1,1-3-3A3,3,0,0,1,329.76,179.55Z"/><path class="cls-1" d="M342.2,179.74a3,3,0,1,1-3-3A3,3,0,0,1,342.2,179.74Z"/><path class="cls-1" d="M354.67,179.92a3,3,0,0,1-6-.09,3,3,0,0,1,6,.09Z"/><path class="cls-1" d="M367.11,180.1a3,3,0,1,1-2.95-3A3,3,0,0,1,367.11,180.1Z"/><path class="cls-1" d="M261.06,191a3,3,0,0,1-6-.09,3,3,0,0,1,6,.09Z"/><path class="cls-1" d="M273.53,191.13a3,3,0,1,1-3-3A3,3,0,0,1,273.53,191.13Z"/><path class="cls-1" d="M286,191.32a3,3,0,1,1-3-3A3,3,0,0,1,286,191.32Z"/><path class="cls-1" d="M298.44,191.5a3,3,0,1,1-3-3A3,3,0,0,1,298.44,191.5Z"/><path class="cls-1" d="M310.9,191.69a3,3,0,1,1-3-3A3,3,0,0,1,310.9,191.69Z"/><path class="cls-1" d="M323.35,191.87a3,3,0,1,1-3-3A3,3,0,0,1,323.35,191.87Z"/><path class="cls-1" d="M335.8,192.06a3,3,0,1,1-3-3A3,3,0,0,1,335.8,192.06Z"/><path class="cls-1" d="M348.25,192.24a3,3,0,0,1-6-.09,3,3,0,0,1,6,.09Z"/><path class="cls-1" d="M360.71,192.43a3,3,0,1,1-3-3A3,3,0,0,1,360.71,192.43Z"/><path class="cls-1" d="M373.17,192.61a3,3,0,1,1-3-3A3,3,0,0,1,373.17,192.61Z"/><path class="cls-1" d="M267.15,202.37a3,3,0,0,1-3.07,2.91,3,3,0,1,1,.08-5.93A3,3,0,0,1,267.15,202.37Z"/><path class="cls-1" d="M279.6,202.55a3,3,0,1,1-3-3A3,3,0,0,1,279.6,202.55Z"/><path class="cls-1" d="M292.06,202.74a3,3,0,0,1-3.07,2.91,3,3,0,1,1,.09-5.93A3,3,0,0,1,292.06,202.74Z"/><path class="cls-1" d="M304.5,202.92a3,3,0,1,1-3-3A3,3,0,0,1,304.5,202.92Z"/><path class="cls-1" d="M317,203.11a3,3,0,1,1-3-3A3,3,0,0,1,317,203.11Z"/><path class="cls-1" d="M329.41,203.29a3,3,0,1,1-3-3A3,3,0,0,1,329.41,203.29Z"/><path class="cls-1" d="M341.85,203.48a3,3,0,1,1-3-3A3,3,0,0,1,341.85,203.48Z"/><path class="cls-1" d="M354.32,203.66a3,3,0,0,1-6-.09,3,3,0,0,1,6,.09Z"/><path class="cls-1" d="M366.76,203.85a3,3,0,1,1-2.95-3A3,3,0,0,1,366.76,203.85Z"/><path class="cls-1" d="M260.73,213.36a3,3,0,1,1-3-3A3,3,0,0,1,260.73,213.36Z"/><path class="cls-1" d="M273.2,213.55a3,3,0,1,1-3-3.05A3,3,0,0,1,273.2,213.55Z"/><path class="cls-1" d="M285.65,213.73a3,3,0,1,1-3-3A3,3,0,0,1,285.65,213.73Z"/><path class="cls-1" d="M298.11,213.92a3,3,0,1,1-3-3A3,3,0,0,1,298.11,213.92Z"/><path class="cls-1" d="M310.56,214.1a3,3,0,1,1-3-3A3,3,0,0,1,310.56,214.1Z"/><path class="cls-1" d="M323,214.29a3,3,0,1,1-3-3A3,3,0,0,1,323,214.29Z"/><path class="cls-1" d="M335.46,214.47a3,3,0,1,1-2.95-3A3,3,0,0,1,335.46,214.47Z"/><path class="cls-1" d="M347.91,214.66a3,3,0,1,1-3-3A3,3,0,0,1,347.91,214.66Z"/><path class="cls-1" d="M360.38,214.84a3,3,0,0,1-6.05-.09,3,3,0,0,1,6.05.09Z"/><path class="cls-1" d="M266.81,224.76a3,3,0,0,1-6-.09,3,3,0,0,1,6,.09Z"/><path class="cls-1" d="M279.27,224.94a3,3,0,1,1-3-3A3,3,0,0,1,279.27,224.94Z"/><path class="cls-1" d="M291.72,225.13a3,3,0,0,1-6-.09,3,3,0,0,1,6,.09Z"/><path class="cls-1" d="M304.17,225.31a3,3,0,1,1-3-3A3,3,0,0,1,304.17,225.31Z"/><path class="cls-1" d="M316.62,225.5a3,3,0,1,1-3-3A3,3,0,0,1,316.62,225.5Z"/><path class="cls-1" d="M329.08,225.68a3,3,0,1,1-3-3A3,3,0,0,1,329.08,225.68Z"/><path class="cls-1" d="M341.52,225.86a3,3,0,1,1-3-3A3,3,0,0,1,341.52,225.86Z"/><path class="cls-1" d="M354,226.05a3,3,0,1,1-3-3A3,3,0,0,1,354,226.05Z"/><path class="cls-1" d="M366.43,226.23a3,3,0,1,1-2.95-3A3,3,0,0,1,366.43,226.23Z"/><path class="cls-1" d="M260.38,237.09a3,3,0,1,1-2.95-3A3,3,0,0,1,260.38,237.09Z"/><path class="cls-1" d="M272.85,237.27a3,3,0,1,1-3-3A3,3,0,0,1,272.85,237.27Z"/><path class="cls-1" d="M285.3,237.46a3,3,0,0,1-6-.09,3,3,0,0,1,6,.09Z"/><path class="cls-1" d="M297.76,237.64a3,3,0,1,1-3-3A3,3,0,0,1,297.76,237.64Z"/><path class="cls-1" d="M310.21,237.83a3,3,0,1,1-3-3A3,3,0,0,1,310.21,237.83Z"/><path class="cls-1" d="M322.66,238a3,3,0,1,1-3-3A3,3,0,0,1,322.66,238Z"/><path class="cls-1" d="M335.11,238.2a3,3,0,0,1-3,2.93,3,3,0,1,1,.09-5.93A3,3,0,0,1,335.11,238.2Z"/><path class="cls-1" d="M347.56,238.38a3,3,0,1,1-3-3A3,3,0,0,1,347.56,238.38Z"/><path class="cls-1" d="M360,238.56a3,3,0,1,1-3-3A3,3,0,0,1,360,238.56Z"/><path class="cls-1" d="M266.46,248.52a3,3,0,0,1-6-.09,3,3,0,0,1,6,.09Z"/><path class="cls-1" d="M278.92,248.7a3,3,0,1,1-3-3A3,3,0,0,1,278.92,248.7Z"/><path class="cls-1" d="M291.37,248.89a3,3,0,0,1-6-.09,3,3,0,0,1,6,.09Z"/><path class="cls-1" d="M303.82,249.07a3,3,0,1,1-3-3A3,3,0,0,1,303.82,249.07Z"/><path class="cls-1" d="M316.27,249.26a3,3,0,1,1-3-3A3,3,0,0,1,316.27,249.26Z"/><path class="cls-1" d="M328.73,249.44a3,3,0,1,1-3-3A3,3,0,0,1,328.73,249.44Z"/><path class="cls-1" d="M341.17,249.62a3,3,0,1,1-3-3A3,3,0,0,1,341.17,249.62Z"/><path class="cls-1" d="M353.64,249.81a3,3,0,1,1-3-3A3,3,0,0,1,353.64,249.81Z"/><path class="cls-1" d="M366.08,250a3,3,0,1,1-2.95-3A3,3,0,0,1,366.08,250Z"/><path class="cls-1" d="M260.05,259.52a3,3,0,1,1-2.95-3A3,3,0,0,1,260.05,259.52Z"/><path class="cls-1" d="M272.52,259.71a3,3,0,1,1-3-3A3,3,0,0,1,272.52,259.71Z"/><path class="cls-1" d="M285,259.89a3,3,0,1,1-2.95-3A3,3,0,0,1,285,259.89Z"/><path class="cls-1" d="M297.42,260.07a3,3,0,1,1-3-3A3,3,0,0,1,297.42,260.07Z"/><path class="cls-1" d="M309.88,260.26a3,3,0,0,1-6-.09,3,3,0,0,1,6,.09Z"/><path class="cls-1" d="M322.33,260.44a3,3,0,1,1-3-3A3,3,0,0,1,322.33,260.44Z"/><path class="cls-1" d="M334.78,260.63a3,3,0,0,1-3,2.9,3,3,0,1,1,3-2.9Z"/><path class="cls-1" d="M347.23,260.81a3,3,0,1,1-3-3A3,3,0,0,1,347.23,260.81Z"/><path class="cls-1" d="M359.7,261a3,3,0,1,1-3-3A3,3,0,0,1,359.7,261Z"/><path class="cls-1" d="M266.13,270.93a3,3,0,1,1-3-3A3,3,0,0,1,266.13,270.93Z"/><path class="cls-1" d="M278.59,271.12a3,3,0,1,1-3-3A3,3,0,0,1,278.59,271.12Z"/><path class="cls-1" d="M291,271.3a3,3,0,1,1-3-3A3,3,0,0,1,291,271.3Z"/><path class="cls-1" d="M303.49,271.49a3,3,0,1,1-3-3A3,3,0,0,1,303.49,271.49Z"/><path class="cls-1" d="M315.94,271.67a3,3,0,0,1-6-.09,3,3,0,0,1,6,.09Z"/><path class="cls-1" d="M328.4,271.85a3,3,0,1,1-3-3A3,3,0,0,1,328.4,271.85Z"/><path class="cls-1" d="M340.84,272a3,3,0,1,1-3-3A3,3,0,0,1,340.84,272Z"/><path class="cls-1" d="M353.31,272.22a3,3,0,1,1-3-3A3,3,0,0,1,353.31,272.22Z"/><path class="cls-1" d="M365.75,272.41a3,3,0,1,1-2.95-3A3,3,0,0,1,365.75,272.41Z"/><path class="cls-1" d="M259.7,283.25a3,3,0,1,1-2.95-3A3,3,0,0,1,259.7,283.25Z"/><path class="cls-1" d="M272.16,283.44a3,3,0,1,1-3-3A3,3,0,0,1,272.16,283.44Z"/><path class="cls-1" d="M284.61,283.62a3,3,0,1,1-2.95-3A3,3,0,0,1,284.61,283.62Z"/><path class="cls-1" d="M297.07,283.81a3,3,0,1,1-3-3A3,3,0,0,1,297.07,283.81Z"/><path class="cls-1" d="M309.53,284a3,3,0,1,1-3-3A3,3,0,0,1,309.53,284Z"/><path class="cls-1" d="M322,284.18a3,3,0,1,1-3-3A3,3,0,0,1,322,284.18Z"/><path class="cls-1" d="M334.43,284.36a3,3,0,1,1-3-3A3,3,0,0,1,334.43,284.36Z"/><path class="cls-1" d="M346.88,284.54a3,3,0,1,1-3-3A3,3,0,0,1,346.88,284.54Z"/><path class="cls-1" d="M359.35,284.73a3,3,0,1,1-3-3A3,3,0,0,1,359.35,284.73Z"/><path class="cls-1" d="M265.78,294.66a3,3,0,0,1-6-.08,3,3,0,0,1,6,.08Z"/><path class="cls-1" d="M278.24,294.85a3,3,0,1,1-3-3A3,3,0,0,1,278.24,294.85Z"/><path class="cls-1" d="M290.69,295a3,3,0,0,1-6-.09,3,3,0,0,1,3.06-2.91A3,3,0,0,1,290.69,295Z"/><path class="cls-1" d="M303.14,295.22a3,3,0,0,1-3.07,2.92,3,3,0,1,1,3.07-2.92Z"/><path class="cls-1" d="M315.59,295.4a3,3,0,1,1-3-3A3,3,0,0,1,315.59,295.4Z"/><path class="cls-1" d="M328.05,295.59a3,3,0,1,1-3-3A3,3,0,0,1,328.05,295.59Z"/><path class="cls-1" d="M340.49,295.77a3,3,0,1,1-3-3A3,3,0,0,1,340.49,295.77Z"/><path class="cls-1" d="M353,296a3,3,0,1,1-3-3A3,3,0,0,1,353,296Z"/><path class="cls-1" d="M259.36,305.66a3,3,0,1,1-2.94-3A3,3,0,0,1,259.36,305.66Z"/><path class="cls-1" d="M271.83,305.84a3,3,0,1,1-3-3A3,3,0,0,1,271.83,305.84Z"/><path class="cls-1" d="M284.28,306a3,3,0,1,1-3-3A3,3,0,0,1,284.28,306Z"/><path class="cls-1" d="M296.74,306.21a3,3,0,1,1-3-3A3,3,0,0,1,296.74,306.21Z"/><path class="cls-1" d="M309.2,306.4a3,3,0,1,1-3-3A3,3,0,0,1,309.2,306.4Z"/><path class="cls-1" d="M321.65,306.58a3,3,0,1,1-3-3A3,3,0,0,1,321.65,306.58Z"/><path class="cls-1" d="M334.1,306.77a3,3,0,1,1-3-3A3,3,0,0,1,334.1,306.77Z"/><path class="cls-1" d="M346.55,307a3,3,0,1,1-3-3A3,3,0,0,1,346.55,307Z"/><path class="cls-1" d="M265.45,317.07a3,3,0,0,1-3.07,2.94,3,3,0,1,1,3.07-2.94Z"/><path class="cls-1" d="M277.91,317.25a3,3,0,1,1-3-3A3,3,0,0,1,277.91,317.25Z"/><path class="cls-1" d="M290.36,317.44a3,3,0,0,1-3.07,2.94,3,3,0,1,1,3.07-2.94Z"/><path class="cls-1" d="M302.81,317.62a3,3,0,0,1-3.07,2.94,3,3,0,1,1,3.07-2.94Z"/><path class="cls-1" d="M315.25,317.81a3,3,0,1,1-3-3A3,3,0,0,1,315.25,317.81Z"/><path class="cls-1" d="M327.71,318a3,3,0,1,1-3-3A3,3,0,0,1,327.71,318Z"/><path class="cls-1" d="M259,329.41a3,3,0,1,1-2.95-3A3,3,0,0,1,259,329.41Z"/><path class="cls-1" d="M271.48,329.59a3,3,0,1,1-3-3A3,3,0,0,1,271.48,329.59Z"/><path class="cls-1" d="M283.93,329.78a3,3,0,1,1-3-3A3,3,0,0,1,283.93,329.78Z"/><path class="cls-1" d="M296.39,330a3,3,0,1,1-3-3A3,3,0,0,1,296.39,330Z"/><path class="cls-1" d="M308.85,330.15a3,3,0,1,1-3-3A3,3,0,0,1,308.85,330.15Z"/><path class="cls-1" d="M321.3,330.33a3,3,0,1,1-3-3A3,3,0,0,1,321.3,330.33Z"/><path class="cls-1" d="M265.1,340.81a3,3,0,0,1-3.08,2.94,3,3,0,1,1,.09-5.95A3,3,0,0,1,265.1,340.81Z"/><path class="cls-1" d="M277.55,341a3,3,0,1,1-3-3A3,3,0,0,1,277.55,341Z"/><path class="cls-1" d="M290,341.18a3,3,0,1,1-3-3A3,3,0,0,1,290,341.18Z"/><path class="cls-1" d="M302.45,341.37a3,3,0,1,1-3-3A3,3,0,0,1,302.45,341.37Z"/><path class="cls-1" d="M314.9,341.55a3,3,0,1,1-3-3A3,3,0,0,1,314.9,341.55Z"/><path class="cls-1" d="M258.68,351.82a3,3,0,1,1-3-3A3,3,0,0,1,258.68,351.82Z"/><path class="cls-1" d="M271.15,352a3,3,0,1,1-3-3A3,3,0,0,1,271.15,352Z"/><path class="cls-1" d="M283.6,352.18a3,3,0,1,1-3-3A3,3,0,0,1,283.6,352.18Z"/><path class="cls-1" d="M296.06,352.37a3,3,0,1,1-3-3A3,3,0,0,1,296.06,352.37Z"/><path class="cls-1" d="M308.51,352.55a3,3,0,1,1-3-3A3,3,0,0,1,308.51,352.55Z"/><path class="cls-1" d="M264.76,363.23a3,3,0,1,1-3-3A3,3,0,0,1,264.76,363.23Z"/><path class="cls-1" d="M277.22,363.41a3,3,0,0,1-6-.09,3,3,0,0,1,6,.09Z"/><path class="cls-1" d="M289.67,363.6a3,3,0,1,1-3-3A3,3,0,0,1,289.67,363.6Z"/><path class="cls-1" d="M302.12,363.78a3,3,0,1,1-3-3A3,3,0,0,1,302.12,363.78Z"/><path class="cls-1" d="M258.33,375.56a3,3,0,1,1-2.95-3A3,3,0,0,1,258.33,375.56Z"/><path class="cls-1" d="M270.8,375.74a3,3,0,1,1-3-3A3,3,0,0,1,270.8,375.74Z"/><path class="cls-1" d="M283.25,375.93a3,3,0,1,1-3-3A3,3,0,0,1,283.25,375.93Z"/><path class="cls-1" d="M295.7,376.11a3,3,0,1,1-3-3A3,3,0,0,1,295.7,376.11Z"/><path class="cls-1" d="M264.41,387a3,3,0,1,1-3-3A3,3,0,0,1,264.41,387Z"/><path class="cls-1" d="M276.87,387.15a3,3,0,1,1-3-3A3,3,0,0,1,276.87,387.15Z"/><path class="cls-1" d="M289.32,387.34a3,3,0,1,1-3-3A3,3,0,0,1,289.32,387.34Z"/><path class="cls-1" d="M258,397.94a3,3,0,1,1-2.95-3A3,3,0,0,1,258,397.94Z"/><path class="cls-1" d="M270.46,398.13a3,3,0,1,1-3-3A3,3,0,0,1,270.46,398.13Z"/><path class="cls-1" d="M282.91,398.31a3,3,0,1,1-3-3A3,3,0,0,1,282.91,398.31Z"/><path class="cls-1" d="M264.08,409.37a3,3,0,1,1-3-3A3,3,0,0,1,264.08,409.37Z"/><path class="cls-1" d="M276.54,409.56a3,3,0,1,1-3-3A3,3,0,0,1,276.54,409.56Z"/><path class="cls-1" d="M289,409.74a3,3,0,1,1-3-3A3,3,0,0,1,289,409.74Z"/><path class="cls-1" d="M195.46,419.86a3,3,0,1,1-3-3A3,3,0,0,1,195.46,419.86Z"/><path class="cls-1" d="M207.92,420a3,3,0,1,1-3-3A3,3,0,0,1,207.92,420Z"/><path class="cls-1" d="M220.36,420.23a3,3,0,1,1-2.94-3A3,3,0,0,1,220.36,420.23Z"/><path class="cls-1" d="M232.82,420.41a3,3,0,1,1-3-3A3,3,0,0,1,232.82,420.41Z"/><path class="cls-1" d="M245.29,420.59a3,3,0,1,1-3-3A3,3,0,0,1,245.29,420.59Z"/><path class="cls-1" d="M189.07,431.07a3,3,0,1,1-3-3A3,3,0,0,1,189.07,431.07Z"/><path class="cls-1" d="M201.53,431.26a3,3,0,1,1-3-3A3,3,0,0,1,201.53,431.26Z"/><path class="cls-1" d="M214,431.44a3,3,0,1,1-3-3A3,3,0,0,1,214,431.44Z"/><path class="cls-1" d="M226.44,431.63a3,3,0,0,1-6-.09,3,3,0,0,1,6,.09Z"/><path class="cls-1" d="M238.89,431.81a3,3,0,1,1-3-3A3,3,0,0,1,238.89,431.81Z"/><path class="cls-1" d="M251.35,432a3,3,0,1,1-3-3A3,3,0,0,1,251.35,432Z"/><path class="cls-1" d="M182.65,443.41a3,3,0,1,1-3-3A3,3,0,0,1,182.65,443.41Z"/><path class="cls-1" d="M195.11,443.59a3,3,0,0,1-6-.09,3,3,0,0,1,6,.09Z"/><path class="cls-1" d="M207.57,443.77a3,3,0,1,1-3-3A3,3,0,0,1,207.57,443.77Z"/><path class="cls-1" d="M220,444a3,3,0,0,1-6-.09,3,3,0,0,1,6,.09Z"/><path class="cls-1" d="M232.47,444.14a3,3,0,1,1-3-3A3,3,0,0,1,232.47,444.14Z"/><path class="cls-1" d="M244.94,444.33a3,3,0,1,1-3-3A3,3,0,0,1,244.94,444.33Z"/><path class="cls-1" d="M188.72,454.82a3,3,0,1,1-3-3A3,3,0,0,1,188.72,454.82Z"/><path class="cls-1" d="M201.18,455a3,3,0,1,1-3-3A3,3,0,0,1,201.18,455Z"/><path class="cls-1" d="M213.63,455.19a3,3,0,1,1-3-3A3,3,0,0,1,213.63,455.19Z"/><path class="cls-1" d="M226.09,455.37a3,3,0,1,1-3-3A3,3,0,0,1,226.09,455.37Z"/><path class="cls-1" d="M238.54,455.55a3,3,0,1,1-3-3A3,3,0,0,1,238.54,455.55Z"/><path class="cls-1" d="M251,455.74a3,3,0,1,1-3-3A3,3,0,0,1,251,455.74Z"/><path class="cls-1" d="M182.31,465.8a3,3,0,1,1-2.94-3A3,3,0,0,1,182.31,465.8Z"/><path class="cls-1" d="M194.78,466a3,3,0,1,1-3-3A3,3,0,0,1,194.78,466Z"/><path class="cls-1" d="M207.24,466.17a3,3,0,1,1-3-3A3,3,0,0,1,207.24,466.17Z"/><path class="cls-1" d="M219.68,466.35a3,3,0,1,1-3-3A3,3,0,0,1,219.68,466.35Z"/><path class="cls-1" d="M232.14,466.54a3,3,0,1,1-3-3A3,3,0,0,1,232.14,466.54Z"/><path class="cls-1" d="M244.61,466.72a3,3,0,1,1-3-3A3,3,0,0,1,244.61,466.72Z"/><path class="cls-1" d="M188.39,477.23a3,3,0,1,1-3-3A3,3,0,0,1,188.39,477.23Z"/><path class="cls-1" d="M200.85,477.42a3,3,0,1,1-3-3A3,3,0,0,1,200.85,477.42Z"/><path class="cls-1" d="M213.3,477.6a3,3,0,1,1-3-3A3,3,0,0,1,213.3,477.6Z"/><path class="cls-1" d="M225.75,477.78a3,3,0,1,1-3-3A3,3,0,0,1,225.75,477.78Z"/><path class="cls-1" d="M238.2,478a3,3,0,1,1-3-3A3,3,0,0,1,238.2,478Z"/><path class="cls-1" d="M250.66,478.15a3,3,0,1,1-3-3A3,3,0,0,1,250.66,478.15Z"/><path class="cls-1" d="M194.43,489.75a3,3,0,1,1-3-3A3,3,0,0,1,194.43,489.75Z"/><path class="cls-1" d="M206.89,489.93a3,3,0,1,1-3-3A3,3,0,0,1,206.89,489.93Z"/><path class="cls-1" d="M219.33,490.11a3,3,0,1,1-3-3A3,3,0,0,1,219.33,490.11Z"/><path class="cls-1" d="M231.79,490.3a3,3,0,1,1-3-3A3,3,0,0,1,231.79,490.3Z"/><path class="cls-1" d="M244.25,490.48a3,3,0,1,1-3-3A3,3,0,0,1,244.25,490.48Z"/><path class="cls-1" d="M188,501a3,3,0,1,1-3-3A3,3,0,0,1,188,501Z"/><path class="cls-1" d="M200.5,501.16a3,3,0,0,1-6-.09,3,3,0,0,1,6,.09Z"/><path class="cls-1" d="M212.94,501.34a3,3,0,1,1-2.95-3A3,3,0,0,1,212.94,501.34Z"/><path class="cls-1" d="M225.4,501.53a3,3,0,1,1-3-3A3,3,0,0,1,225.4,501.53Z"/><path class="cls-1" d="M237.85,501.71a3,3,0,1,1-3-3A3,3,0,0,1,237.85,501.71Z"/><path class="cls-1" d="M250.31,501.89a3,3,0,1,1-3-3A3,3,0,0,1,250.31,501.89Z"/><path class="cls-1" d="M194.1,512.16a3,3,0,1,1-3-3A3,3,0,0,1,194.1,512.16Z"/><path class="cls-1" d="M206.56,512.34a3,3,0,1,1-3-3A3,3,0,0,1,206.56,512.34Z"/><path class="cls-1" d="M219,512.53a3,3,0,1,1-2.95-3A3,3,0,0,1,219,512.53Z"/><path class="cls-1" d="M231.45,512.71a3,3,0,1,1-3-3A3,3,0,0,1,231.45,512.71Z"/><path class="cls-1" d="M243.92,512.9a3,3,0,1,1-3-3A3,3,0,0,1,243.92,512.9Z"/><path class="cls-1" d="M200.16,523.59a3,3,0,0,1-6-.09,3,3,0,0,1,6,.09Z"/><path class="cls-1" d="M212.61,523.77a3,3,0,1,1-3-3A3,3,0,0,1,212.61,523.77Z"/><path class="cls-1" d="M225.07,524a3,3,0,1,1-3-3A3,3,0,0,1,225.07,524Z"/><path class="cls-1" d="M237.52,524.14a3,3,0,1,1-3-3A3,3,0,0,1,237.52,524.14Z"/><path class="cls-1" d="M250,524.33a3,3,0,0,1-6-.09,3,3,0,0,1,6,.09Z"/><path class="cls-1" d="M206.2,536.07a3,3,0,1,1-3-3A3,3,0,0,1,206.2,536.07Z"/><path class="cls-1" d="M218.64,536.25a3,3,0,0,1-6-.09,3,3,0,0,1,6,.09Z"/><path class="cls-1" d="M231.1,536.44a3,3,0,1,1-3-3A3,3,0,0,1,231.1,536.44Z"/><path class="cls-1" d="M243.57,536.62a3,3,0,1,1-3-3A3,3,0,0,1,243.57,536.62Z"/><path class="cls-1" d="M224.72,547.68a3,3,0,1,1-3-3A3,3,0,0,1,224.72,547.68Z"/><path class="cls-1" d="M237.17,547.87a3,3,0,1,1-3-3A3,3,0,0,1,237.17,547.87Z"/><path class="cls-1" d="M249.63,548.05a3,3,0,1,1-3-3A3,3,0,0,1,249.63,548.05Z"/><path class="cls-1" d="M230.77,558.86a3,3,0,1,1-3-3A3,3,0,0,1,230.77,558.86Z"/><path class="cls-1" d="M243.24,559.05a3,3,0,1,1-3-3A3,3,0,0,1,243.24,559.05Z"/><path class="cls-1" d="M249.3,570.46a3,3,0,1,1-3-3A3,3,0,0,1,249.3,570.46Z"/><path class="cls-1" d="M257.66,420.78a3,3,0,1,1-3-3A3,3,0,0,1,257.66,420.78Z"/><path class="cls-1" d="M270.13,421a3,3,0,1,1-3-3A3,3,0,0,1,270.13,421Z"/><path class="cls-1" d="M282.58,421.15a3,3,0,1,1-3-3A3,3,0,0,1,282.58,421.15Z"/><path class="cls-1" d="M263.74,432.18a3,3,0,1,1-3-3A3,3,0,0,1,263.74,432.18Z"/><path class="cls-1" d="M276.2,432.37a3,3,0,1,1-3-3A3,3,0,0,1,276.2,432.37Z"/><path class="cls-1" d="M257.31,444.51a3,3,0,0,1-6-.09,3,3,0,0,1,6,.09Z"/><path class="cls-1" d="M269.78,444.7a3,3,0,1,1-3-3A3,3,0,0,1,269.78,444.7Z"/><path class="cls-1" d="M282.22,444.88a3,3,0,0,1-6-.09,3,3,0,0,1,6,.09Z"/><path class="cls-1" d="M263.39,455.92a3,3,0,1,1-3-3A3,3,0,0,1,263.39,455.92Z"/><path class="cls-1" d="M275.85,456.11a3,3,0,1,1-3-3A3,3,0,0,1,275.85,456.11Z"/><path class="cls-1" d="M257,466.91a3,3,0,1,1-3-3A3,3,0,0,1,257,466.91Z"/><path class="cls-1" d="M269.44,467.09a3,3,0,1,1-3-3A3,3,0,0,1,269.44,467.09Z"/><path class="cls-1" d="M281.89,467.28a3,3,0,1,1-2.95-3A3,3,0,0,1,281.89,467.28Z"/><path class="cls-1" d="M263.06,478.34a3,3,0,0,1-6-.09,3,3,0,0,1,6,.09Z"/><path class="cls-1" d="M275.52,478.52a3,3,0,1,1-3-3A3,3,0,0,1,275.52,478.52Z"/><path class="cls-1" d="M256.62,490.67a3,3,0,1,1-2.94-3A3,3,0,0,1,256.62,490.67Z"/><path class="cls-1" d="M269.09,490.85a3,3,0,1,1-3-3A3,3,0,0,1,269.09,490.85Z"/><path class="cls-1" d="M281.54,491a3,3,0,1,1-3-3A3,3,0,0,1,281.54,491Z"/><path class="cls-1" d="M262.71,502.08a3,3,0,0,1-3.07,2.93,3,3,0,1,1,3.07-2.93Z"/><path class="cls-1" d="M275.17,502.26a3,3,0,1,1-3-3A3,3,0,0,1,275.17,502.26Z"/><path class="cls-1" d="M256.29,513.08a3,3,0,0,1-6-.09,3,3,0,0,1,6,.09Z"/><path class="cls-1" d="M268.76,513.27a3,3,0,1,1-3-3A3,3,0,0,1,268.76,513.27Z"/><path class="cls-1" d="M281.21,513.45a3,3,0,1,1-3-3A3,3,0,0,1,281.21,513.45Z"/><path class="cls-1" d="M262.38,524.51a3,3,0,0,1-3.08,2.89,3,3,0,1,1,.09-5.93A3,3,0,0,1,262.38,524.51Z"/><path class="cls-1" d="M274.83,524.7a3,3,0,1,1-3-3A3,3,0,0,1,274.83,524.7Z"/><path class="cls-1" d="M255.94,536.81a3,3,0,1,1-2.95-3A3,3,0,0,1,255.94,536.81Z"/><path class="cls-1" d="M268.41,537a3,3,0,1,1-3-3A3,3,0,0,1,268.41,537Z"/><path class="cls-1" d="M280.86,537.17a3,3,0,1,1-3-3A3,3,0,0,1,280.86,537.17Z"/><path class="cls-1" d="M262,548.23a3,3,0,0,1-6-.09,3,3,0,0,1,6,.09Z"/><path class="cls-1" d="M255.61,559.23a3,3,0,1,1-3-3A3,3,0,0,1,255.61,559.23Z"/></g><path class="cls-3" d="M269.29,467l-16.52-16-.27-17.91L267.27,418l-.19-12.36-22-21.25-.25-16,25.64-26.24-.18-12.09c49.6-17.59,84.76-65,83.92-120.37-1.05-69.6-58.6-125.27-128.54-124.36a126.32,126.32,0,0,0-102,53.84c-12.34-11.5-22.86-22.68-26.86-28.89C88.09,97.19,76.4,43.89,62.12,39.64c-9.74-2.89-22.8,11.2-28.53,17.62,15.61,8,25.6,21.61,32.08,37.89,9.88,24.82,23.27,41.24,40.21,53.22-9-4-16.39-7.76-20-10.48C75.49,130.38,53,93,40.16,93.86c-8.74.62-16.1,15.22-19.28,21.81,14.81,1.58,26.34,9.09,35.62,19.68,16,18.29,33.22,27,52.93,30.48A124.83,124.83,0,0,0,101,213c.87,57.92,40.9,106.18,94.63,120.21l-.34,0,3,199.53L215.74,553l15.42-.2,28.6-36.19-10.44-10.1,20.26-20.73Z"/><ellipse class="cls-4" cx="231.87" cy="260.78" rx="87.29" ry="41.67" transform="translate(-3.22 2.9) rotate(-0.71)"/><polygon class="cls-5" points="209.97 335.05 213.5 547.05 216.94 552.53 222.76 552.93 218.51 336.41 209.97 335.05"/><path class="cls-5" d="M220.93,271.75c0-.21.08-.4.08-.61a15.27,15.27,0,1,0-30.53-1c0,.21,0,.4,0,.61Z"/><path class="cls-5" d="M291.67,271.19c0-.21.07-.4.08-.61a15.27,15.27,0,1,0-30.53-1c0,.21,0,.4,0,.61Z"/></g></g></svg>